<?xml version="1.0" encoding="UTF-8"?>
<svg id="Capa_2" data-name="Capa 2" xmlns="http://www.w3.org/2000/svg" viewBox="0 0 256.07 256.04">
  <defs>
    <style>
      .cls-1 {
        fill: #ff641a;
      }

      .cls-2 {
        fill: #e73b3d;
      }

      .cls-3 {
        fill: #ed6761;
      }

      .cls-4 {
        fill: #ff9f00;
      }

      .cls-5 {
        fill: #ffd400;
      }

      .cls-6 {
        fill: #ff9f04;
      }
    </style>
  </defs>
  <g id="bell">
    <g>
      <path class="cls-5" d="M109.98,80.84c18.63,3.83,39.03,20.19,47.19,37.31,17,35.7.8,67.96-25.82,92.61L36.98,118.84c19.29-16.4,44.95-43.77,73-38Z"/>
      <path class="cls-5" d="M31.98,123.84l93.56,93.01c1.35,1.77-4.74,7.13-5.92,6.92-2.22-.39-12.6-14.08-15.67-15.46-4.09-1.84-7.19,2.15-4.42,6.47,2.15,3.36,14.87,13.63,15.23,15.67.21,1.21-.95,3.03-.78,4.8s1.67,3.26,1.96,5.15c.83,5.53-1.02,10.67-5.95,13.44-10.31-5.5-20.84-21.27-30.46-29.04-1.49-1.2-2.25-2.35-4.54-1.96,0-1.65-.07-2.89-1.44-4.04l-37.04-37.01c-1.04-.98-2.21-.94-3.52-.94.39-2.28-.76-3.05-1.96-4.54-8.59-10.64-21.93-19.54-30.11-30.89-3.25-8.82,2.56-17.66,12.07-17.58l72.55,72.02c4.71.81,5.72-3.09,3.5-6.58l-62.02-62.01c-.8-1.11-1.85-1.14-3.03-1.44,1.45-2.84,6.2-4.48,8-6Z"/>
      <path class="cls-3" d="M229.98.84c17.41,13.09,19.1,38.3,2.33,52.83l-57.33,37.17c-3.46-3.63-13.78-14.68-17-17l39.98-62.52C206.79,1.37,217.08-1.67,229.98.84Z"/>
      <path class="cls-6" d="M170.98,120.84c3.68,9.33,5.72,22.55,5.04,32.54-2.25,32.96-31.33,53.8-49.53,78.51-1.64,3.67,4.57,10.49-.05,17.91-2.84,4.56-8.65,7.02-13.97,6.04-2.09-.39-2.15-1.81-2.48-1.99,4.94-2.77,6.79-7.91,5.95-13.44-.29-1.89-1.79-3.41-1.96-5.15s.99-3.6.78-4.8c-.36-2.05-13.07-12.32-15.23-15.67-2.77-4.32.33-8.31,4.42-6.47,3.07,1.38,13.45,15.08,15.67,15.46,1.19.21,7.27-5.15,5.92-6.92L31.98,123.84c.78-.66,3.08-3.37,5-5l94.36,91.93c26.63-24.65,42.82-56.91,25.82-92.61-8.15-17.13-28.56-33.48-47.19-37.31,2.4.27,4.66-.73,7.05-.55,3.53.27,16.17,4.69,17.24,4.42,1.9-.49,8.53-8.88,11.71-10.87,4.15,7.39,22.55,19.71,25.24,26.25,3.66,8.92-4.28,11.37-4.26,14.23.02,1.88,3.38,4.9,4.02,6.52Z"/>
      <path class="cls-4" d="M25.98,183.84c4.84,5.61,36.29,33.21,37.01,37.55,1.21,7.22-8.9,17.78-14.69,21.27-2.79,1.69-6.05,1.95-8.33,4.17-33.8-3.29-43.61-46.85-14-63Z"/>
      <path class="cls-2" d="M181.98,97.84c-.87-1.21-5.34-5.25-7-7l57.33-37.17c16.78-14.53,15.09-39.74-2.33-52.83,28.51,5.54,35.4,42.85,11.91,59.41l-59.91,37.59Z"/>
      <path class="cls-1" d="M32.98,180.84c1.32,0,2.48-.03,3.52.94l37.04,37.01c1.37,1.16,1.43,2.39,1.44,4.04.04,9.82-14.03,21.1-22.96,23.54-5.08,1.39-7.46.9-12.04.46,2.28-2.22,5.53-2.48,8.33-4.17,5.79-3.5,15.89-14.06,14.69-21.27-.72-4.34-32.17-31.94-37.01-37.55,2.55-1.39,3.22-3.02,7-3Z"/>
      <path class="cls-6" d="M23.98,129.84c1.17.3,2.23.32,3.03,1.44l62.02,62.01c2.21,3.49,1.21,7.39-3.5,6.58L12.98,127.84c2.21.02,8.62,1.4,11,2Z"/>
      <path class="cls-1" d="M157.98,73.84c3.22,2.32,13.54,13.37,17,17,1.66,1.75,6.13,5.79,7,7,7.05,9.81-4.68,17.04-11,23-.64-1.62-4-4.64-4.02-6.52-.02-2.86,7.92-5.31,4.26-14.23-2.69-6.54-21.09-18.87-25.24-26.25,4.14-2.59,7.59-3.17,12,0Z"/>
    </g>
  </g>
</svg>