<?xml version="1.0" encoding="UTF-8"?>
<svg id="Capa_2" data-name="Capa 2" xmlns="http://www.w3.org/2000/svg" viewBox="0 0 118.75 83.07">
  <defs>
    <style>
      .cls-1 {
        fill: #f4ecd7;
      }

      .cls-2 {
        fill: #fefbf3;
      }

      .cls-3 {
        fill: #e73b3d;
      }

      .cls-4 {
        fill: #e7d9bf;
      }

      .cls-5 {
        fill: #fefbf4;
      }

      .cls-6 {
        fill: #ed6761;
      }

      .cls-7 {
        fill: #fefdfd;
      }

      .cls-8 {
        fill: #e7d8be;
      }

      .cls-9 {
        fill: #d9281d;
      }
    </style>
  </defs>
  <g id="bowl-full">
    <g id="bowl-full-2" data-name="bowl-full">
      <g>
        <path class="cls-3" d="M58.63,83.07c-6.7-2.03-17.09-2.59-21.04-9.27-3.28-5.55-3.61-18.87-3.27-25.33.09-1.73.4-3.77.81-5.46,15.86,1.91,33.37,1.96,49.24-.03,5.62-.7,19.9-2.95,23.8-6.91.83-.84.74-1.7,1.2-2.67,4.23,6.36,9.48,20.29,9.37,27.91-.19,13.24-21.16,18.19-31.44,19.85-9.55,1.54-19,1.94-28.67,1.91ZM105.84,40.94c-.85.13-1.74.73-2.54.93-6.62,1.64-13.39,2.71-20.09,3.94-1.09.35-2.11,1.45-2.62,2.46-2.59,5.09,1.64,8.8,2.08,13.84.36,4.01-1.34,10.44.48,13.67,2.18,3.87,6.66,2.07,10.21,1.28,7.36-1.64,17.81-4.96,21.41-12.24,1.71-3.46.21-9.1-.66-12.79-.43-1.82-2.15-8.6-3.12-9.7-1.15-1.3-3.5-1.66-5.15-1.4ZM61.76,48.94c-4,.92-2.16,9.98.45,9.83,2.03-.11,3.9-4.26,3.9-6.01,0-2.53-1.71-4.42-4.35-3.82ZM52.95,49.75c-2.37.49-2.67,2.82-2,4.82.61,1.81,4.51,6.29,6.14,3.86,1.97-2.92.07-9.55-4.14-8.68ZM66.98,60.57c.49.49,2.75.39,3.48.27,2.88-.49,6.62-4.08,4.04-6.85-3.62-3.89-9.55,4.55-7.52,6.59ZM45.74,55.08c-.5.11-.93.5-1.27.87-4.6,4.98,10.7,12.33,6.82,2.82-.92-2.25-2.9-4.29-5.55-3.68ZM59.1,59.63c-4.87.83-10.52,8.4-7.1,13.11,2.6,3.58,5.77.69,8.64.69s5.02,2.45,8.13.14c4.02-2.99.33-9.57-2.65-12.01-2.08-1.7-4.31-2.4-7.02-1.94Z"/>
        <path class="cls-9" d="M9.23,33.39c.53,3.25,4.34,4.78,7.14,5.81,5.7,2.1,12.72,3.08,18.76,3.81-.42,1.69-.72,3.73-.81,5.46-.34,6.46-.01,19.78,3.27,25.33,3.95,6.68,14.35,7.23,21.04,9.27-11.82-.04-23.74-.89-35.26-3.6-7.02-1.65-21.86-6-23.2-14.19-1.28-7.78,4.76-25.15,9.05-31.89Z"/>
        <path class="cls-6" d="M109.38,33.39c-.46.97-.37,1.83-1.2,2.67-3.9,3.95-18.19,6.2-23.8,6.91-15.87,1.99-33.38,1.95-49.24.03-6.04-.73-13.06-1.7-18.76-3.81-2.8-1.03-6.62-2.55-7.14-5.81,2.69-4.22,8.43-5.65,13.14-6.76,20.7-4.87,56.19-5.03,76.66.69,4.37,1.22,7.79,2.19,10.36,6.07ZM18.04,35.8c-.14.66.31.57.72.73,12.42,4.97,33.79,5.03,47.2,4.6,10.66-.34,21.67-.73,31.92-3.86.71-.22,2.63-.58,2.67-1.47.27.06.29.3.78.13,1.66-.56,3.38-2.27,2.16-4.01-2.29-3.27-14.56-5.2-18.59-5.71-10.48-1.31-22.26-1.7-32.83-1.38-7.27.22-31.74,1.76-36.59,6.68-2.01,2.04.48,4.42,2.55,4.28Z"/>
        <path class="cls-6" d="M105.84,40.94c1.65-.26,3.99.1,5.15,1.4.98,1.1,2.69,7.88,3.12,9.7.87,3.69,2.37,9.33.66,12.79-3.6,7.28-14.06,10.6-21.41,12.24-3.55.79-8.02,2.59-10.21-1.28-1.82-3.24-.13-9.67-.48-13.67-.45-5.04-4.67-8.75-2.08-13.84.51-1,1.53-2.1,2.62-2.46,6.7-1.23,13.47-2.31,20.09-3.94.81-.2,1.69-.79,2.54-.93Z"/>
        <path class="cls-7" d="M59.1,59.63c2.71-.46,4.93.23,7.02,1.94,2.99,2.44,6.67,9.02,2.65,12.01-3.11,2.31-5.33-.14-8.13-.14s-6.03,2.89-8.64-.69c-3.42-4.71,2.23-12.29,7.1-13.11Z"/>
        <path class="cls-7" d="M52.95,49.75c4.21-.87,6.11,5.76,4.14,8.68-1.63,2.43-5.54-2.06-6.14-3.86-.67-1.99-.37-4.33,2-4.82Z"/>
        <path class="cls-7" d="M61.76,48.94c2.64-.61,4.35,1.29,4.35,3.82,0,1.75-1.87,5.9-3.9,6.01-2.62.15-4.46-8.91-.45-9.83Z"/>
        <path class="cls-7" d="M45.74,55.08c2.65-.61,4.63,1.44,5.55,3.68,3.88,9.51-11.42,2.16-6.82-2.82.34-.36.77-.75,1.27-.87Z"/>
        <path class="cls-7" d="M66.98,60.57c-2.03-2.03,3.9-10.48,7.52-6.59,2.58,2.77-1.16,6.36-4.04,6.85-.73.12-2.99.22-3.48-.27Z"/>
        <path class="cls-3" d="M103.5,31.93c-2.29-3.27-14.56-5.2-18.59-5.71-10.48-1.31-22.26-1.7-32.83-1.38-7.27.22-31.74,1.76-36.59,6.68-2.01,2.04.48,4.42,2.55,4.28-.14.66.31.57.72.73,12.42,4.97,33.79,5.03,47.2,4.6,10.66-.34,21.67-.73,31.92-3.86.71-.22,2.63-.58,2.67-1.47.27.06.29.3.78.13,1.66-.56,3.38-2.27,2.16-4.01Z"/>
      </g>
      <g>
        <path class="cls-1" d="M27.12,38.04c.68-1.21,1.47-2.64,2.94-2.89,2.12-.36,4.4.68,5.89,2.14.23.23,1.69,2,1.76,2.19.16.39.2.71.16.97,4.37.44,8.86.68,13.22.78,3.29-4.92,8.65-9.53,12.39-12.47,2.38-1.87,5.52-4.35,8.04-5.92.48-.3,1.09-.8,1.65-.87,3.16-.36,6.44,3.61,9.41,4.11,3.6.62,5.72-1.8,5.47-5.26-.37-5.14-6.55-6.95-8.78-11.01-1.15-2.1-1.75-5.38-1.01-7.64-3.28-3.64-10.34-2.44-12.79,1.7-2.56,4.34.95,7.67.19,12.07-.45,2.58-6.32,7.8-8.45,9.68-2.53,2.23-12.82,10.81-15.52,11.15-5.19.65-8.76-5.15-14.08-1.16-.99.74-1.8,1.69-2.4,2.75.51.13,1.02.25,1.55.37.13-.24.25-.48.37-.69ZM66.38,18c-.18.16-.44.09-.4-.29.12-1.09.56-2.52.72-3.66.97.6.23,3.48-.32,3.96ZM67.42,16.55l.21-2.08h.62c.01.71.17,1.99-.83,2.08ZM77.32,20.92c-.44.1-1.06-.86-.41-1.04.81-.22.94.92.41,1.04ZM80.97,23.32c-.13-.51.92-.64,1.04-.52.53.55-.76,1.63-1.04.52ZM82.74,19.25c-.42-.12-.42-.92,0-1.04.96-.27.96,1.31,0,1.04ZM76.49,3.42c.12,3.11.45,6.4,2.73,8.73.53.54,4.49,3.36,3.83,4.19l-4.17-3.02c-2.46-2.11-4.22-6.93-2.39-9.9ZM74.66,9.1c.13-.21-.02-.37.47-.27-.09,1.03.06,1.96.58,2.86l3.17,3.6c-2.14-.46-5.63-4.01-4.22-6.19ZM72.44,1.63c3.04.73.28,5.31.27,7.55,0,.73.77,3.5.3,3.79-1.63.53-2.46-1-3.84-1.21-1.55-.23-2.45,1-2.95-.8-1.18-4.27.71-10.65,6.21-9.33ZM47.85,34.8c4.66-3.65,9.35-6.43,13.43-10.96.75-.83,1.87-3.02,2.97-3.29,1.12-.28,1.67.49,1.72,1.53.11,2.26-2.64,4.98-4.17,6.45-3.16,3.03-10.65,9.35-14.83,10.18-5.63,1.12-.73-2.65.88-3.91ZM39.83,37.79c.36.01,1.57-.38,1.76-.19.58.59-.8.78-.84.83-.09.12.42.69.01.94-.55.17-1.7.34-1.68-.53.43-.1,1.42.33,1.25-.42-1.12.04-2.2-.28-2.71-1.36.68.09,1.54.69,2.2.72Z"/>
        <path class="cls-8" d="M89.91,15c-3.16-2.54-6.52-1.69-8.57-5.81-1.16-2.34-1.26-4.99-3.09-7.02-.74,2.26-.15,5.54,1.01,7.64,2.24,4.06,8.41,5.87,8.78,11.01.25,3.47-1.87,5.88-5.47,5.26-2.96-.51-6.24-4.48-9.41-4.11-.56.06-1.17.57-1.65.87-2.52,1.56-5.67,4.05-8.04,5.92-3.73,2.94-9.1,7.55-12.39,12.47,3.22.07,6.35.08,9.28.04,1.95-1.78,3.74-3.33,4.66-4.08,2.28-1.89,8.37-6.91,10.97-7.57,2.65-.67,7.32,1.17,10.48.9,7.4-.64,8.98-11.04,3.42-15.5Z"/>
        <path class="cls-2" d="M46.97,38.71c4.18-.83,11.67-7.15,14.83-10.18,1.53-1.47,4.29-4.2,4.17-6.45-.05-1.04-.6-1.81-1.72-1.53-1.1.27-2.22,2.46-2.97,3.29-4.07,4.53-8.76,7.3-13.43,10.96-1.62,1.27-6.51,5.03-.88,3.91Z"/>
        <path class="cls-5" d="M37.72,39.48c-.08-.19-1.53-1.97-1.76-2.19-1.49-1.46-3.77-2.5-5.89-2.14-1.48.25-2.27,1.68-2.94,2.89-.12.22-.25.45-.37.69,3.46.77,7.24,1.33,11.12,1.72.04-.26,0-.58-.16-.97Z"/>
        <path class="cls-5" d="M69.18,11.77c1.38.2,2.21,1.74,3.84,1.21.47-.29-.31-3.06-.3-3.79,0-2.24,2.77-6.82-.27-7.55-5.5-1.31-7.39,5.06-6.21,9.33.5,1.8,1.4.58,2.95.8Z"/>
        <path class="cls-4" d="M78.88,13.32l4.17,3.02c.66-.83-3.3-3.65-3.83-4.19-2.28-2.33-2.61-5.62-2.73-8.73-1.83,2.97-.07,7.79,2.39,9.9Z"/>
        <path class="cls-4" d="M78.88,15.29l-3.17-3.6c-.52-.9-.67-1.83-.58-2.86-.48-.1-.33.06-.47.27-1.41,2.19,2.08,5.73,4.22,6.19Z"/>
        <path class="cls-4" d="M40.33,38.43c.17.75-.82.32-1.25.42-.02.86,1.12.7,1.68.53.4-.25-.1-.82-.01-.94.04-.06,1.42-.24.84-.83-.19-.19-1.4.21-1.76.19-.66-.03-1.52-.63-2.2-.72.5,1.07,1.59,1.39,2.71,1.36Z"/>
        <path class="cls-4" d="M65.98,17.71c-.04.39.22.45.4.29.55-.48,1.28-3.35.32-3.96-.15,1.14-.6,2.57-.72,3.66Z"/>
        <path class="cls-8" d="M67.63,14.46l-.21,2.08c1-.09.85-1.38.83-2.08h-.62Z"/>
        <path class="cls-4" d="M82.74,18.22c-.42.12-.42.92,0,1.04.96.27.96-1.31,0-1.04Z"/>
        <path class="cls-4" d="M80.97,23.32c.28,1.11,1.57.04,1.04-.52-.12-.13-1.17,0-1.04.52Z"/>
        <path class="cls-8" d="M76.91,19.88c-.65.18-.03,1.14.41,1.04.53-.12.4-1.26-.41-1.04Z"/>
      </g>
    </g>
  </g>
</svg>