<?xml version="1.0" encoding="UTF-8"?>
<svg id="Capa_2" data-name="Capa 2" xmlns="http://www.w3.org/2000/svg" viewBox="0 0 353.12 295.81">
  <defs>
    <style>
      .cls-1 {
        fill: #f3574b;
      }

      .cls-2 {
        fill: #ecbb83;
      }

      .cls-3 {
        fill: #fff;
      }

      .cls-4 {
        fill: #ff6a00;
      }

      .cls-5 {
        fill: #e2e2e2;
      }

      .cls-6 {
        fill: #5a5550;
      }

      .cls-7 {
        fill: #b84742;
      }

      .cls-8 {
        fill: #ff7e00;
      }

      .cls-9 {
        fill: #ffdc9f;
      }

      .cls-10 {
        fill: #92e9ff;
      }

      .cls-11 {
        fill: #e43d35;
      }

      .cls-12 {
        fill: #cb5000;
      }

      .cls-13 {
        fill: #1e0e00;
      }

      .cls-14 {
        fill: #a12d2b;
      }

      .cls-15 {
        fill: #fb7973;
      }
    </style>
  </defs>
  <g id="dog-panting">
    <g>
      <g>
        <path class="cls-12" d="M75.59,189.56c.75,8.71,4.48,16.89,8.91,24.43,4.43,7.53,9.6,14.64,13.66,22.37,3.75,7.14,6.5,14.73,8.95,22.41.61,1.88,1.19,3.76,1.77,5.64-3.66-.77-7.69.65-10.06,3.53-2.37,2.89-2.99,7.12-1.53,10.56.18.43.41.87.83,1.1.35.19.76.19,1.16.18,7.47-.11,14.96-.23,22.43-.34.9-.02,1.84-.04,2.63-.48.93-.53,1.45-1.56,1.9-2.53,2.68-5.89,4.35-12.24,4.96-18.69.3-3.19.35-6.41.12-9.61,1.33.04,2.67.08,4.01.13-1.75-2.66-3.03-5.62-3.79-8.72,2.74.62,5.62.6,8.35-.04-2.43-3.39-7.08-8.87-5.18-13.17,2.17-4.9,4.97-9.37,6.71-14.51,3.27-9.7,3.78-20.51.35-30.16-3.43-9.64-11.04-17.95-20.75-21.22-4.91-1.66-10.17-2.01-15.35-1.81-7.74.3-15.81,2.01-21.63,7.11-6.57,5.76-9.2,15.11-8.45,23.82Z"/>
        <path class="cls-2" d="M97.28,278.51c.18.43.41.87.83,1.1.35.19.76.19,1.16.18,7.47-.11,14.96-.23,22.43-.34.9-.02,1.84-.04,2.63-.48.93-.53,1.45-1.56,1.9-2.53,2.68-5.89,4.35-12.24,4.96-18.69-1.39-1.64-3.88-3.34-4.53-4.9,1.42,3.44-.55,7.86-4.05,9.1-4.29,1.53-8.99-1.56-11.41-5.41.22.95.44,1.88.65,2.83-1.57.42-3.16-.1-4.75-.58.61,1.88,1.19,3.76,1.77,5.64-3.66-.77-7.69.65-10.06,3.53-2.37,2.89-2.99,7.12-1.53,10.56Z"/>
      </g>
      <g>
        <path class="cls-12" d="M287.21,256.78c3.05,3.72,5.09,8.07,4.92,12.82-5.21-2.36-12.05-.08-14.8,4.94-1.32,2.4-1.41,5.99.98,7.32,1.06.58,2.32.57,3.53.54,9.51-.22,19.03-.45,28.54-.67,1.59-5.89,2.52-11.97,2.79-18.06.47-10.62-1.06-21.33-4.55-31.37,4.22,3.9,9.65,6.48,15.35,7.27-5.45-5.09-9.4-11.77-11.24-19,3.27.85,6.54,1.71,9.8,2.56-8.6-7.09-12.26-17.95-16.62-27.81-4.22-9.53-12.78-12.8-23.01-13.55-11.23-.83-24.18,2.5-29.25,12.56-1.64,3.24-2.28,6.9-2.57,10.52-.91,11.44,1.93,23.64,9.91,31.88,5.48,5.66,12.85,9,19.25,13.6,2.54,1.82,4.98,4,6.99,6.45Z"/>
        <path class="cls-2" d="M278.3,281.86c1.06.58,2.32.57,3.53.54,9.51-.22,19.03-.45,28.54-.67,1.59-5.89,2.52-11.97,2.79-18.06-.22-.3-.46-.61-.69-.9-.84-1.05-4.26-4.1-4.3-5.38.04,1.46-.04,2.92-.26,4.37-.08.57-.24,1.22-.76,1.47-.56.29-1.22-.05-1.77-.38-3.93-2.42-7.86-4.82-11.79-7.23.7,2.01,1.03,4.15.97,6.27-1.67-2.09-3.88-3.77-6.34-4.81-.32-.14-.67-.26-1.01-.3,3.05,3.72,5.09,8.07,4.92,12.82-5.21-2.36-12.05-.08-14.8,4.94-1.32,2.4-1.41,5.99.98,7.32Z"/>
      </g>
      <path class="cls-8" d="M52.21,67.37c.02.37.08.75.21,1.1.08.25.21.49.36.71,1.44,2,4.08.73,5.95-.46,3.79-2.4,7.92-4.29,12.21-5.61,3.45-1.06,8.32-.84,11.32-2.78.41-.27.81-.57,1.2-.89,3.9-3.21,6.51-8.87,8.31-14.1.69-2.02,1.27-3.97,1.74-5.69,2.09-7.52,3.34-15.32,6.44-22.49,1.72-4,4.03-7.82,5.59-11.86.88-2.25-1.5-4.4-3.67-3.3-.27.14-.53.27-.8.41-12.61,6.48-24.66,14.49-33.85,25.28-7.19,8.42-12.52,18.69-14.36,29.53-.57,3.34-.8,6.73-.66,10.14Z"/>
      <path class="cls-9" d="M60.2,55.64c6.02.1,12.07-1.38,17.36-4.26,1.01-5.02,1.39-10.26,3.11-15.07,2.06-5.74,5.68-10.78,9.54-15.49,1.92-2.32,4.05-5.14,3.23-8.04-10.38,4.31-19.45,11.71-25.74,21.03-4.42,6.54-7.45,14-8.91,21.76.46.07.93.08,1.4.08Z"/>
      <path class="cls-2" d="M57.81,65.54c0,.27,0,.55.02.82,4.28-1.66,8.66-3.07,13.1-4.26,1.84-1.29,3.87-2.15,4.74-4.22.88-2.09,1.45-4.27,1.9-6.5-5.3,2.88-11.34,4.37-17.36,4.26-.47,0-.94-.02-1.4-.08-.62,3.29-.95,6.63-.99,9.98Z"/>
      <path class="cls-4" d="M70.92,62.1c4.13-1.1,8.31-1.98,12.54-2.65,3.9-3.21,6.51-8.87,8.31-14.1-1.37.04-2.44,1.16-3.41,2.14-1,1.01-2.33,2.01-3.7,1.64-.33-.09-.63-.26-.96-.36-1.32-.38-2.64.47-3.79,1.22-.76.5-1.55.96-2.35,1.39-.45,2.23-1.02,4.42-1.9,6.5-.87,2.08-2.9,2.93-4.74,4.22Z"/>
      <path class="cls-4" d="M52.21,67.37c.02.37.08.75.21,1.1.73-.2,1.44-.51,2.13-.79,1.08-.46,2.18-.9,3.28-1.32-.02-.27-.02-.55-.02-.82.03-3.35.37-6.7.99-9.98-.35-.03-.69-.09-1.03-.19-.38-.11-.76-.26-1.16-.29-.92-.08-1.77.48-2.48,1.06-.43.35-.85.71-1.26,1.09-.57,3.34-.8,6.73-.66,10.14Z"/>
      <path class="cls-9" d="M57.82,66.36c.03.55.14,1.09.41,1.56.99,1.64,3.47,1.43,5.16.54,2.51-1.32,4.31-3.54,6.36-5.43.37-.35.76-.65,1.17-.93-4.44,1.18-8.82,2.6-13.1,4.26Z"/>
      <path class="cls-8" d="M8.59,120.04c4.03,6,8.07,10.77,12.38,14.28,2.25,1.22,4.57,2.31,6.92,3.3,4.2,1.78,8.67,3.56,13.21,4.08,0,0-.02.03-.03.03,1.03.02,2.09-.03,3.16-.1,14.81-1.11,27.59-13.88,27.59-13.88,0,0-5.95,32.17-29.31,32.39l-2.31,6.93c2.22.85,4.86.76,7.26.35,7.42-1.28,13.97-4.54,19.01-10.13-.03.5-.06,1-.08,1.5,1.44-1.33,2.44-2.27,2.55-2.37-.08.41-1.49,7.28-2.85,15.89.02,8.03.36,16.11.84,23.95.51,8.32,4.1,16.21,9.17,22.85t0,0c.46.61.94,1.21,1.42,1.79,5.81,6.99,13.16,12.55,20.72,17.59,5.08,3.39,10.33,6.58,15.94,8.99,6.51,2.8,13.43,4.5,20.09,6.89,3,1.08,5.95,2.3,8.92,3.45,20.74,3.88,42.39,6.27,49.01,5.74,12.56-1,41.97-23.46,63.46-22.8,8.08.24,18.98,1.71,29.88,3.32,4.76.7,9.53,1.44,14.06,2.1,12.65,1.87,23.5,3.24,27.44,2.18,6.56-1.77,8.88-18.78,9.47-29.36.15-2.74.18-5.05.14-6.55h0c0-.3-.02-.55-.03-.77,0,0,2.31,5.62,6.28,7.6,0,0-1.98-17.85-5.29-29.08-3.3-11.24-10.24-16.53-10.24-16.53,0,0,14.21-6.3,15.53-13.72,1.32-7.42-5.29-19.65-5.29-19.65,0,0,.57-2.59.49-5.75-.16-6.04-2.72-14.16-16.24-10.33,0,0,0,10.57-2.86,14.98-2.87,4.41-14.32,13.44-14.32,13.44,0,0-10.79-13-28.42-14.21-17.63-1.21-50.01.34-64.34,5.62-14.31,5.29-39.87,5.95-48.47.66-8.59-5.29-23.79-27.98-24.01-39.22-.22-11.23-18.29-48.8-43.07-49.13-2.99-.03-5.87-.08-8.64-.09-7.42-.03-14.1.17-20.16,1.33-10.45,2-19.04,6.86-26.39,18.26-13.22,20.49-8.6,20.82-13.22,22.58-.21.08-.43.15-.67.2-2.66.68-6.91.13-11.02-.49-3.56-.54-7-1.14-9.25-1.04-2.63.12-4.89,2.11-5.03,6.16-.14,3.78,1.58,9.32,6.57,16.76Z"/>
      <path class="cls-4" d="M46.2,84.61c.2,1.03.28,2.08.15,3.12-.27,2.28-1.52,4.35-3.11,6-.92.96-1.99,1.82-3.26,2.2-1.27.38-2.76.21-3.74-.7-.87-.81-1.2-2.08-1.13-3.26.07-1.19.47-2.33.88-3.44,1.03-2.84,2.13-6.15,4.48-8.2,2.89-2.54,5.26,1.79,5.74,4.29Z"/>
      <path class="cls-4" d="M84.26,91.15c1.39,3.3,1.19,7.11.08,10.52-.51,1.58-1.26,3.16-2.55,4.21-1.9,1.54-4.7,1.61-6.95.67-2.26-.94-4.04-2.75-5.52-4.7-.58-.77-1.13-1.57-1.56-2.43-1.45-2.87-1.57-6.42-.13-9.3,3.66-7.34,13.62-6.11,16.63,1.04Z"/>
      <g>
        <path class="cls-5" d="M66.8,93.24c0,.81.13,1.6.35,2.33t0,.02c1,3.2,3.99,5.53,7.52,5.53,4.35,0,7.88-3.53,7.88-7.88,0-1.44-.39-2.8-1.06-3.95,0,0,0,0,0-.02-1.37-2.34-3.91-3.9-6.81-3.9-4.35,0-7.88,3.52-7.88,7.87Z"/>
        <path class="cls-3" d="M66.8,93.24c0,.81.13,1.6.35,2.33t0,.02c1.37,2.34,3.9,3.91,6.81,3.91,4.35,0,7.88-3.53,7.88-7.88,0-.81-.12-1.6-.35-2.33,0,0,0,0,0-.02-1.37-2.34-3.91-3.9-6.81-3.9-4.35,0-7.88,3.52-7.88,7.87Z"/>
        <circle class="cls-13" cx="73.61" cy="93.24" r="6.8" transform="translate(-16.81 16.19) rotate(-11.28)"/>
        <path class="cls-3" d="M69.25,90.07c-.59,1.34-.52,2.66.15,2.95.67.29,1.69-.56,2.27-1.89.59-1.34.52-2.66-.15-2.95-.67-.29-1.69.56-2.27,1.89Z"/>
      </g>
      <path class="cls-9" d="M1.65,109.28c.45,5.64,3.07,11.16,6.84,15.46,3.48,3.98,7.81,7.06,12.48,9.58,2.25,1.22,4.57,2.31,6.92,3.3,4.2,1.78,8.67,3.56,13.21,4.08,0,0-.02.03-.03.03-1.31,2.13-2.43,4.38-3.34,6.71-.72,1.78-1.3,3.61-1.77,5.48-1.01,4.09-1.16,9.04,2.01,11.82.67.58,1.42,1.01,2.23,1.32,2.22.85,4.86.76,7.26.35,7.42-1.28,13.97-4.54,19.01-10.13-.03.42-.05.84-.07,1.27,0,.08,0,.16,0,.24-.24,4.45-.33,8.98-.3,13.52.02,8.03.36,16.11.84,23.95.51,8.32,4.1,16.21,9.17,22.85t0,0c.46.61.94,1.21,1.42,1.79,0,.02.03.03.03.04,5.81,6.98,13.14,12.52,20.69,17.55,5.08,3.39,10.33,6.58,15.94,8.99,6.51,2.8,13.43,4.5,20.09,6.89,3,1.08,5.95,2.3,8.92,3.45,2.59,1.01,5.19,1.98,7.85,2.77,2.47.73,4.98,1.32,7.51,1.82,2.07.43,4.14.8,6.22,1.17,1.55.28,2.96.95,4.5,1.25,13.26,2.7,27.08.49,40.01-3.47,12.94-3.97,25.28-9.66,38.04-14.16,8.42-2.97,17.36-5.45,26.2-4.21,5.29.74,10.29,2.78,15.16,4.97,1.38.62,2.74,1.25,4.1,1.9,7.34,3.52,14.42,7.63,20.4,13.12-3.89-6.16-8.45-11.78-13.58-16.81-7.18-7.04-15.47-12.9-24.67-17.33-4.76-2.3-9.83-3.97-15.02-4.97,2.14-3.18,6.36-4.02,10.14-4.6-20.56-.7-41.26,3.2-60.14,11.34.68-3.03,1.99-5.93,3.83-8.44-10.06,9.19-23.47,13.01-37.11,15.37-3.41.59-6.83,1.09-10.23,1.55-.6.09-1.2.17-1.8.25-6.21.84-12.47,1.7-18.71,1.11-12.47-1.17-24.03-8.23-31.81-18.05-7.79-9.82-14.09-21.84-12.53-34.27.64-5.08,1.95-10.08,3.88-14.82,2.2-5.36,5.84-10.89,11.5-12.09,4.35-.93,8.76.94,12.81,2.76-.94-3.64-1.88-7.29-2.82-10.93,2.86,1.32,6.06,1.9,9.21,1.68-2.93-4.05-5.55-8.34-7.84-12.79,3.35-.44,6.63-1.43,9.66-2.91-15.54-9.43-34.83-9.59-52.14-15.12-3.78-1.21-7.52-2.69-10.79-4.92-7.4-5.03-12.01-13.91-11.88-22.85.06-3.75.9-7.46,2.09-11.02,3.95-11.8,12.13-22.05,22.51-28.87-7.42-.03-14.1.17-20.16,1.33-6.71,5.93-12.14,13.23-16.57,21.04-2.7,4.77-5.04,9.75-7.93,14.42-.89,1.43-1.86,2.86-3.24,3.82-.18.12-.35.23-.53.33-1.33.74-2.86,1.06-4.37,1.26-2.53.32-5.08.3-7.63.19-3.09-.14-6.2-.44-9.29-.51-.57,0-1.15,0-1.73.02-1.82.07-3.66.3-5.45.72-3.22.74-6.27,2.09-8.78,4.16-.02.08-.03.16-.04.24-.43,1.98-.54,4-.37,6Z"/>
      <path class="cls-2" d="M1.65,109.28c.45,5.64,3.07,11.16,6.84,15.46,3.48,3.98,7.81,7.06,12.48,9.58,2.25,1.22,4.57,2.31,6.92,3.3,4.2,1.78,8.67,3.56,13.21,4.08,0,0-.02.03-.03.03-1.31,2.13-2.43,4.38-3.34,6.71,2.15.37,4.32.6,6.5.68,5.91.2,11.98-.72,17.19-3.51,4.35-2.34,9.55-7,10.41-12.15-3.79,3.32-8.08,4.67-13.1,5.03-13.65.97-27.61-3.29-38.38-11.74-3.45-2.69-6.6-5.84-8.8-9.62-.68-1.17-1.27-2.39-2.1-3.45-1.16-1.46-2.73-2.53-4.37-3.39-1.06-.55-2.26-1.03-3.43-1.02Z"/>
      <path class="cls-2" d="M10.84,98.88c.08.03.16.06.24.08,1.78.57,3.66.78,5.51,1.06,3.82.58,7.58,1.48,11.25,2.69,1.66.56,3.32,1.17,5.04,1.55,2.36.51,4.79.55,7.2.57,4.64.03,9.26.03,13.9-.04.54,0,2.88.3,3.14-.31.34-.79-1.52-1.45-2.03-1.71-1.84-.93-3.73-1.77-5.65-2.53-3.29-1.28-6.67-2.3-10.13-3.03-1.33.74-2.86,1.06-4.37,1.26-2.53.32-5.08.3-7.63.19-3.09-.14-6.2-.44-9.29-.51-.57,0-1.15,0-1.73.02-1.82.07-3.66.3-5.45.72Z"/>
      <g>
        <path class="cls-5" d="M36.39,85.87c-.17.74-.25,1.47-.28,2.17t0,.02c-.08,3.05,1.16,5.56,3.18,6.01,2.49.56,5.23-2.21,6.12-6.19.29-1.32.35-2.6.2-3.74,0,0,0,0,0-.02-.31-2.31-1.44-4.06-3.1-4.43-2.49-.56-5.23,2.21-6.12,6.18Z"/>
        <path class="cls-3" d="M36.39,85.87c-.17.74-.25,1.47-.28,2.17t0,.02c.31,2.31,1.44,4.07,3.1,4.44,2.49.56,5.23-2.21,6.12-6.19.17-.74.26-1.47.28-2.17,0,0,0,0,0-.02-.31-2.31-1.44-4.06-3.1-4.43-2.49-.56-5.23,2.21-6.12,6.18Z"/>
        <path class="cls-13" d="M36.4,85.88c-.77,3.43.36,6.6,2.51,7.08,2.15.48,4.52-1.91,5.28-5.34.77-3.43-.36-6.6-2.51-7.08-2.15-.48-4.52,1.91-5.28,5.34Z"/>
        <path class="cls-3" d="M38.44,83.29c-.61,1.15-.84,2.36-.52,2.72.32.35,1.08-.29,1.69-1.44.61-1.15.84-2.36.52-2.72s-1.08.29-1.69,1.44Z"/>
      </g>
      <path class="cls-13" d="M11.66,96.3c-3.8-.22-8.21.22-10.39,3.35-1.94,2.78-1.31,6.56-.34,9.81.69,2.31,1.67,4.77,3.79,5.91,1.08.58,2.33.74,3.56.79,7.25.33,14.44-2.66,19.92-7.42,10.98-9.55-11-12.13-16.52-12.44Z"/>
      <path class="cls-9" d="M88.34,83.96c8.84-4.9-11.45-16.28-13.69-8.49-1.14,3.96,10.15,10.46,13.69,8.49Z"/>
      <path class="cls-9" d="M47.02,72.06c-1.25.02-2.6.16-3.56,1.32-.42.51-.75,1.36-.51,2.08.15.47.5.74.84.92,1.7.93,3.58.68,5.39.65.54,0,1.09,0,1.61-.2s1.02-.68,1.24-1.4c1-3.38-3.87-3.39-5.01-3.37Z"/>
      <path class="cls-7" d="M36.15,163.23c2.29,3.02,8.05,4.04,16.67-.3,1.6-.79,3.29-1.78,5.07-2.96,11.44-7.61,14.63-27.74,14.63-27.74-3.33,8.84-12.88,10.46-19.96,10.34-4.7-.08-8.32-.92-8.32-.92-1.87.66-3.13.07-3.13.07-5.39,6.51-7.67,17.94-4.95,21.53Z"/>
      <path class="cls-14" d="M50.87,157.71c.42,1.82,1.07,3.57,1.95,5.21,1.6-.79,3.29-1.78,5.07-2.96,11.44-7.61,14.63-27.74,14.63-27.74-3.33,8.84-12.88,10.46-19.96,10.34-.63,1.11-1.02,2.54-1.33,3.58-1.11,3.74-1.23,7.78-.35,11.58Z"/>
      <path class="cls-2" d="M158.56,262.43c2.07.43,4.14.8,6.22,1.17,1.55.28,2.96.95,4.5,1.25,13.26,2.7,27.08.49,40.01-3.47,12.94-3.97,25.28-9.66,38.04-14.16,8.42-2.97,17.36-5.45,26.2-4.21,5.29.74,10.29,2.78,15.16,4.97,1.38.62,2.74,1.25,4.1,1.9-1.24-.97-2.49-1.93-3.76-2.86-2.91-2.15-5.93-4.25-9.34-5.44-5.8-2.02-15.98-6.37-48.48,3.75-1.92.6-35.26,16.28-51.53,17.3-3.97.24-8.73-.16-10.69-3.62,3.17-.11,6.33-.22,9.48-.33-4.75-3.67-8.91-8.45-8.11-14.39.58-4.3,8.51-9.94-3.87-5.17-2.38.92-7.52,4.38-8.34,6.88-.4,1.18-.43,2.45-.47,3.69-.12,4.26-.21,8.67.88,12.74Z"/>
      <path class="cls-1" d="M28.07,195.56c1.52,6.35,7.2,11.03,13.73,10.63,4.73-.28,9.04-3.26,8.31-13.56-1.54-21.7,13.12-35.91,16.54-43.05,0,0-8.28-2.74-12.9,0,0,0-1-1.06-3.35-1.55-.3-.07-.61-.12-.95-.16-4.48-.56-8.88,1.57-11.46,5.29-5.17,7.45-14.34,23.97-9.92,42.41Z"/>
      <path class="cls-8" d="M137.52,88.8c7.92-3.25,13.14-11.08,15.76-19.22,2.62-8.15,3.1-16.8,4.37-25.26,1.92-12.78,5.67-25.19,8.75-37.74.31-1.25.6-2.59.19-3.81-.58-1.7-2.45-2.7-4.25-2.76s-3.53.62-5.16,1.39c-10.13,4.75-18.36,12.74-25.66,21.21-7.3,8.47-13.91,17.57-21.88,25.41-2.11,2.07-4.32,4.07-5.93,6.55-1.6,2.48-2.54,5.56-1.78,8.41.59,2.2,2.1,4.02,3.57,5.76,2.91,3.45,5.83,6.9,8.74,10.35,6.6,7.81,12.47,14.16,23.29,9.72Z"/>
      <path class="cls-9" d="M111.89,62.1c.04.22.12.44.22.64.42.87,1.3,1.54,2.25,1.4,1.18-.18,1.87-1.47,2.02-2.65.96.11,1.59,1.05,2.08,1.89,1.66,2.9,3.34,5.79,5,8.7.52-1.71.93-3.44,1.22-5.19,1.58,3.15,3,6.38,4.22,9.69.7,1.88,1.48,6.87,4.53,5.87.45-.14.88-.43,1.3-.8,1.75-1.57,3.25-4.74,4.08-6.33,1.39-2.67,2.42-5.51,3.2-8.39,1.5-5.5,2.14-11.18,2.91-16.83,1.15-8.48,2.58-16.92,4.32-25.29.62-3,1.28-6.04,1.08-9.1-.07-1.05-.5-2.36-1.55-2.44-.62-.05-1.16.36-1.62.77-5.94,5.1-10.43,11.65-14.67,18.23-2.46,3.83-4.9,7.73-8.21,10.84-1.38,1.3-2.91,2.45-4.19,3.84-.97,1.06-1.79,2.25-2.61,3.44-1.84,2.66-3.69,5.34-4.97,8.31-.46,1.08-.85,2.27-.62,3.42Z"/>
      <path class="cls-15" d="M48.15,184.95c-.05,2.89.29,5.77.42,8.65.12,2.69,0,5.59-1.6,7.76-1.5,2.03-4.15,3.06-6.67,2.91-2.52-.15-4.91-1.36-6.78-3.06-1.28-1.16-2.4-2.66-2.53-4.39-.02-.32,0-.66.17-.92.25-.37.74-.49,1.19-.52,2.94-.16,5.73,2.43,8.56,1.61,1.54-.44,2.65-1.84,3.22-3.34.57-1.5.7-3.12.92-4.71.48-3.48,1.43-6.87,2.62-10.16.51-1.41,2.26-8.01,3.93-7.96-.73,2.3-1.88,4.44-2.47,6.83-.59,2.38-.92,4.83-.96,7.29Z"/>
      <path class="cls-11" d="M42.4,169.15c.47,0,.73-.56.86-1.01,1.75-5.86,4.6-11.39,8.38-16.21.51-.65,1.05-1.26,1.64-1.83.21-.2.37-.36.48-.52,0,0-1-1.06-3.35-1.55.12.52.14,1.06.08,1.58-.15,1.13-.64,2.19-1.16,3.21-2.47,4.97-5.46,9.79-6.78,15.18-.09.38-.18.76-.14,1.15Z"/>
      <path class="cls-6" d="M6.95,98.01c-1.22.06-2.74.4-3,1.59,2.21.7,4.58.7,6.88.97s4.7.9,6.34,2.54c.38.38.72.83.82,1.35.3,1.51-1.42,3.06-.75,4.45.32.66,1.11.99,1.85.97.74-.02,1.43-.32,2.1-.63,1.61-.75,3.24-1.59,4.39-2.94,1.03-1.21,2.1-3.67.64-4.86-1.39-1.14-4.03-1.75-5.73-2.23-4.39-1.23-9.01-1.44-13.54-1.21Z"/>
      <path class="cls-3" d="M8.06,97.96c-.33.03-.76.2-.69.52.04.23.31.32.54.37,1.01.22,8.32,1.73,8.42.73.21-2.07-7.14-1.73-8.26-1.62Z"/>
      <g>
        <path class="cls-8" d="M285.55,244.09c1.28,2.17,2.81,4.21,4.59,6.04,5.48,5.66,12.85,9,19.25,13.6,2.54,1.82,4.98,4,6.99,6.45,3.05,3.72,5.09,8.07,4.92,12.82-5.21-2.36-12.05-.08-14.8,4.94-1.32,2.4-1.41,5.99.98,7.32,1.06.58,2.32.57,3.53.54,9.51-.22,19.03-.45,28.54-.67,1.59-5.89,2.52-11.97,2.79-18.06.47-10.62-1.06-21.33-4.55-31.37,4.22,3.9,9.65,6.48,15.35,7.27-5.45-5.09-9.4-11.77-11.24-19,1.17.3,2.33.61,3.49.91,2.1.55,4.21,1.1,6.31,1.65-7.52-6.2-11.27-15.29-15.01-24.07h0c-.3-.73-.62-1.45-.92-2.16-.23-.53-.46-1.06-.69-1.58-4.22-9.53-12.78-12.8-23.01-13.55-11.23-.83-24.18,2.5-29.25,12.56-1.64,3.24-2.28,6.9-2.57,10.52-.71,8.89.84,18.24,5.32,25.84Z"/>
        <path class="cls-9" d="M307.47,295.26c1.06.58,2.32.57,3.53.54,9.51-.22,19.03-.45,28.54-.67,1.59-5.89,2.52-11.97,2.79-18.06-.22-.3-.46-.61-.69-.9-.84-1.05-4.26-4.1-4.3-5.38.04,1.46-.04,2.92-.26,4.37-.08.57-.24,1.22-.76,1.47-.56.29-1.22-.05-1.77-.38-3.93-2.42-7.86-4.82-11.79-7.23.7,2.01,1.03,4.15.97,6.27-1.67-2.09-3.88-3.77-6.34-4.81-.32-.14-.67-.26-1.01-.3,3.05,3.72,5.09,8.07,4.92,12.82-5.21-2.36-12.05-.08-14.8,4.94-1.32,2.4-1.41,5.99.98,7.32Z"/>
      </g>
      <g>
        <path class="cls-8" d="M105.85,205.59c.75,8.71,4.48,16.89,8.91,24.43,4.43,7.53,9.6,14.64,13.66,22.37,3.75,7.14,6.5,14.73,8.95,22.41.61,1.88,1.19,3.76,1.77,5.64-3.66-.77-7.69.65-10.06,3.53-2.37,2.89-2.99,7.12-1.53,10.56.18.43.41.87.83,1.1.35.19.76.19,1.16.18,7.47-.11,14.96-.23,22.43-.34.9-.02,1.84-.04,2.63-.48.93-.53,1.45-1.56,1.9-2.53,2.68-5.89,4.35-12.24,4.96-18.69.3-3.19.35-6.41.12-9.61,1.33.04,2.67.08,4.01.13-1.75-2.66-3.03-5.62-3.79-8.72,2.74.62,5.62.6,8.35-.04-2.43-3.39-7.08-8.87-5.18-13.17,2.17-4.9,4.97-9.37,6.71-14.51,3.27-9.7,3.78-20.51.35-30.16-3.43-9.64-11.04-17.95-20.75-21.22-4.91-1.66-10.17-2.01-15.35-1.81-7.74.3-15.81,2.01-21.63,7.11-6.57,5.76-9.2,15.11-8.45,23.82Z"/>
        <path class="cls-9" d="M127.55,294.54c.18.43.41.87.83,1.1.35.19.76.19,1.16.18,7.47-.11,14.96-.23,22.43-.34.9-.02,1.84-.04,2.63-.48.93-.53,1.45-1.56,1.9-2.53,2.68-5.89,4.35-12.24,4.96-18.69-1.39-1.64-3.88-3.34-4.53-4.9,1.42,3.44-.55,7.86-4.05,9.1-4.29,1.53-8.99-1.56-11.41-5.41.22.95.44,1.88.65,2.83-1.57.42-3.16-.1-4.75-.58.61,1.88,1.19,3.76,1.77,5.64-3.66-.77-7.69.65-10.06,3.53-2.37,2.89-2.99,7.12-1.53,10.56Z"/>
      </g>
      <path class="cls-2" d="M112.11,62.74c.42.87,1.3,1.54,2.25,1.4,1.18-.18,1.87-1.47,2.02-2.65.96.11,1.59,1.05,2.08,1.89,1.66,2.9,3.34,5.79,5,8.7.52-1.71.93-3.44,1.22-5.19,1.58,3.15,3,6.38,4.22,9.69.7,1.88,1.48,6.87,4.53,5.87.45-.14.88-.43,1.3-.8-.64-.14-1.49.14-2.15-.43-.71-.64-1.05-1.6-1.35-2.51-1.57-4.7-3.15-9.4-4.73-14.1-.6-1.8-1.26-3.68-2.68-4.93-1.18,1.38-.65,3.92-2.22,4.84-1.62-2.56-3.61-4.9-5.88-6.91-.19,1.11-.38,2.2-.57,3.3-.1.59-.22,1.21-.6,1.66-.58.72-1.73.71-2.45.17Z"/>
      <path class="cls-2" d="M66.09,172.31c.02,8.03.36,16.11.84,23.95.51,8.32,4.1,16.21,9.17,22.85t0,0c.46.61.94,1.21,1.42,1.79,0,.02.03.03.03.04-1.8-2.96-3.37-6.07-4.7-9.27.92.44,1.84.87,2.76,1.31-3.72-9.39-4.79-19.82-3.07-29.78.96.38,1.88.9,2.72,1.52-1.54-7.01-3.08-14.28-1.53-21.28,1.08-4.87,3.6-9.28,6.09-13.61.85-1.49,1.71-2.98,2.56-4.47-4.74,3.52-9.36,7.21-13.84,11.05-.79.68-1.5,1.39-2.15,2.12,0,.08,0,.16,0,.24-.24,4.45-.33,8.98-.3,13.52Z"/>
      <path class="cls-12" d="M166.5,239.11c3.4-.46,6.73-.95,10.14-1.54.13-5.8-.89-11.63-3.01-17.03,3.07,1.99,6.27,4.05,9.9,4.5-1.13-8.4-10.04-13.83-14.53-20.41,0,2.2,5.49,13.29,7.99,13.57-2.53-.29-4.99-1.09-7.2-2.36,1.02,6.36,2.04,12.72,3.06,19.08-2.51-.41-6.43,3.92-6.35,4.2Z"/>
      <path class="cls-12" d="M324.44,175.4c7.32,8.65,14.05,18.46,15.57,29.69-1.13-1.09-2.48-1.96-3.94-2.53.47,4.41,2.24,8.68,5.03,12.13-1.56-1.71-3.38-3.19-5.36-4.39-.26-.16-.53-.31-.8-.46.14,3.12.68,6.2,1.58,9.18,1.73,5.84,4.8,11.31,8.84,15.87,2.1.55,4.21,1.1,6.31,1.65-7.52-6.2-11.27-15.29-15.01-24.07h0c0-.3-.02-.55-.03-.77,0,0,2.31,5.62,6.28,7.6,0,0-1.98-17.85-5.29-29.08-3.3-11.24-10.24-16.53-10.24-16.53,0,0,14.21-6.3,15.53-13.72,1.32-7.42-5.29-19.65-5.29-19.65,0,0,.57-2.59.49-5.75-.79,2.66-2.41,5.09-4.31,7.15,2.81,1.45,5.13,3.95,6.06,6.98.92,3.02.34,6.54-1.75,8.92-2,2.29-5.15,3.39-6.98,5.82,1.32-.02,2.63-.04,3.95-.06-3.56,2.19-6.98,4.61-10.24,7.24-.74.6-1.53,1.32-1.6,2.26-.08.95.57,1.79,1.2,2.53Z"/>
      <path class="cls-3" d="M46.3,199.67c-.83,1.49-2.54,2.63-4.19,2.25-.16-.04-.35-.12-.37-.28-.03-.19.19-.32.36-.4.96-.44,1.79-1.13,2.41-1.98.76-1.03.72-2.14,1.24-3.22.37-.76,1.05-1.12,1.5-.05.37.9-.51,2.9-.95,3.68Z"/>
      <g>
        <path class="cls-10" d="M35.36,216.21c.07,2.78.84,5.63,2.67,7.71.82.94,2.17,1.74,3.26,1.14.71-.39,1.04-1.26,1.08-2.07.08-1.47-.54-2.88-1.31-4.13-.77-1.25-1.7-2.4-2.34-3.73-.57-1.18-.88-2.45-1.11-3.73-.11-.6-.01-3.07-1.15-2.59-.64.27-.73,2.76-.82,3.41-.19,1.32-.31,2.66-.28,3.99Z"/>
        <path class="cls-10" d="M40.32,210.25c.06.22.13.46.31.59.37.25.87-.12,1.02-.54s.13-.89.35-1.28c.46-.81,1.74-.76,2.43-.13.69.63.93,1.6,1.14,2.51.7,3.05,1.39,6.1,2.09,9.15.13.57.45,1.28,1.03,1.2.27-.03.48-.24.63-.46.83-1.16.62-2.74.38-4.14l-.92-5.36c-.42-2.44-.82-5.04.18-7.3.37.55,1.31.36,1.69-.18.38-.55.37-1.27.34-1.94-.23-5.4-.54-10.8-1.37-16.14-.77.25-1.01,1.21-1.1,2.02-.53,4.59-.5,9.32-2.07,13.67-.2.56-.46,1.15-.98,1.43-.92.51-2.17-.17-3.07.37-.62.38-.92,1.36-1.7,1.48-.68.1-1.05-.69-1.48,0-.58.91.84,4.12,1.09,5.06Z"/>
        <path class="cls-10" d="M35.29,182.91c-.19,1.05-.61,2.34.2,3.02.74.62,1.97.05,2.36-.84.39-.89.19-1.91-.03-2.86-.45-2-.93-4.08-.43-6.06.2-.79,2.94-6.3.65-5.33-2.15.9-3.09,4.35-3.1,6.37-.01,1.9.68,3.8.34,5.7Z"/>
        <path class="cls-3" d="M37.85,222.13c-.22-.35-.45-.7-.58-1.09-.13-.39-.16-.83,0-1.21.09-.2.28-.39.49-.33.13.04.21.16.27.27.24.44.4.93.69,1.34.37.54.94.91,1.38,1.39.49.53.68,1.69-.34,1.6-.83-.07-1.54-1.37-1.92-1.98Z"/>
        <path class="cls-3" d="M41.24,209.83c.08-.2.08-.42.08-.64,0-.22-.02-.44.04-.64.05-.18.16-.35.15-.54,0-.16-.09-.31-.24-.38-.14-.07-.33-.04-.43.08-.05.06-.08.15-.11.23-.04.12-.08.25-.09.38-.01.24.09.48.06.72-.02.18-.11.35-.19.52-.29.71.45.92.71.28Z"/>
        <path class="cls-3" d="M48.97,220.75c.35-.95.42-2,.2-2.99-.03-.13-.06-.26-.15-.36-.08-.1-.23-.16-.35-.12-.15.06-.2.24-.2.39-.04.72.38,1.47.11,2.15-.07.17-.17.32-.26.48-.08.16-.14.34-.1.52.12.51.61.29.74-.07Z"/>
        <path class="cls-3" d="M47.77,210.79c-.07-.33-.15-.66-.31-.96-.07-.13-.21-.26-.33-.19-.06.04-.09.12-.1.19-.11.56-.06,1.13.01,1.69.06.52.14,1.04.24,1.56.06.35.08,1.18.37,1.42.67.57.41-1.73.39-1.94-.06-.6-.15-1.19-.27-1.78Z"/>
        <path class="cls-3" d="M49.96,203.95c.1-.09.16-.21.21-.34.23-.61.24-1.27.24-1.92,0-.61.01-1.21,0-1.82-.01-.47-.04-.95-.2-1.39-.01-.04-.03-.08-.06-.11-.11-.09-.25.08-.29.22-.34,1.22.09,2.53-.07,3.79-.02.18-.13.41-.31.37-.08-.02-.16-.1-.23-.05-.15.09,0,.77.06.93.11.28.35.57.65.33Z"/>
      </g>
    </g>
  </g>
</svg>