<?xml version="1.0" encoding="UTF-8"?>
<svg id="Capa_2" data-name="Capa 2" xmlns="http://www.w3.org/2000/svg" viewBox="0 0 333.59 224.57">
  <defs>
    <style>
      .cls-1 {
        fill: #ecbb83;
      }

      .cls-2 {
        fill: #fff;
      }

      .cls-3 {
        fill: #ff6a00;
      }

      .cls-4 {
        fill: #e2e2e2;
      }

      .cls-5 {
        fill: #5a5550;
      }

      .cls-6 {
        fill: #b84742;
      }

      .cls-7 {
        fill: #ff7e00;
      }

      .cls-8 {
        fill: #cf9962;
      }

      .cls-9 {
        fill: #ffdc9f;
      }

      .cls-10 {
        fill: #cb5000;
      }

      .cls-11 {
        fill: #1e0e00;
      }
    </style>
  </defs>
  <g id="dog-eating">
    <g>
      <g>
        <path class="cls-7" d="M295.85,151.54c-1.09-.39-1.76-1.65-1.49-2.77-.78,3.75-2.02,7.41-3.69,10.85-.45-1.95-.9-3.91-1.35-5.87-5.46,7.71-9.89,16.16-13.15,25.04-1.72,4.66-3.1,9.43-4.15,14.29-11.01.38-24.31.8-35.3.23-.88-4.46,1.4-10.42,4.72-13.53,3.31-3.12,9.83-3.79,14.22-2.63-1.36-1.33-2.71-2.67-4.06-4.02-8.83-8.86-17.17-18.45-21.18-30.19-6.18-18.09-.8-38.57,9.76-54.52,5.43-8.23,12.55-14.76,19.76-21.39,6.3-5.81,15.42-13.26,22.97-5,2.2,2.4,4.36,6.44,5.62,9.44,5.66,13.44,8.64,26.85,8.33,41.42-.94.14-1.94-.41-2.32-1.27.75,5.53,1.51,11.07,2.27,16.6,1.07,7.81,2.08,16.06-.95,23.33Z"/>
        <path class="cls-8" d="M276.18,178.8c-1.72,4.66-3.1,9.43-4.15,14.29-11.01.38-24.31.8-35.3.23-.88-4.46,1.4-10.42,4.72-13.53,3.31-3.12,9.83-3.79,14.22-2.63-1.36-1.33-2.71-2.67-4.06-4.02,4.9-.97,9.88-2.26,10.2-3.81-.08,1.2-1.03,2.18-1.45,3.33-1.1,3.03,2.1,6.22,5.32,6.4,3.22.17,6.18-1.62,8.9-3.35-.22,1.22.65,2.2,1.6,3.09Z"/>
      </g>
      <g>
        <path class="cls-10" d="M143.34,156.01s0,.01-.01.02c-14.65,22.55-22.19,20.13-22.5,21.32.09,0,.17,0,.25,0,2.17-.05,4.34-.11,6.51-.17-3.19,3.5-7.18,6.26-11.58,8.04-.2.21-.41.41-.62.61,3.06.61,6.28.5,9.28-.36-5.03,3.42-10.73,5.84-16.68,7.06,1.48.67,2.97,1.33,4.45,1.99-5.56.51-11.1,1.34-16.57,2.47-8.5,3.58-17.23,6.57-26.14,8.94-.78.21-1.55.41-2.33.61-4.03,1.02-8.12,1.92-12.27,2.24-.29.02-.59.04-.91.07-4.01.33-10.24,1.02-13.88.88-10.39-.41-36.35-.08-40.34-.97.05-5.57,2.62-11.08,6.86-14.69,4.24-3.62,10.09-5.28,15.6-4.44,1.52.23,3.1.64,4.58.21,1.16-.34,2.12-1.17,3.03-1.97.46-.41.92-.81,1.38-1.21,7.82-6.83,15.89-13.46,24.88-18.65,16.05-9.24,68.68-44.09,86.19-36.8,5.49,2.29,4.06,19.79.81,24.78Z"/>
        <path class="cls-1" d="M54.22,208.87c-4.01.33-10.24,1.02-13.88.88-10.39-.41-36.35-.08-40.34-.97.05-5.57,2.62-11.08,6.86-14.69,4.24-3.62,10.09-5.28,15.6-4.44,1.52.23,3.1.64,4.58.21,1.16-.34,2.12-1.17,3.03-1.97.46-.41.92-.81,1.38-1.21.97.07,1.97.07,3.04.05,4-.08,5.46-.34,4.06,3.73-.5,1.42.37,3.04,1.64,3.86,1.27.81,2.84.97,4.35.98,3.01.03,6.03-.45,8.89-1.42-1.7,1.64-3.38,3.27-5.07,4.91-.74.72-1.5,1.91-.78,2.65.3.3.74.38,1.15.44,2.52.38,5.04.76,7.56,1.14.46,2.2-.5,4.2-2.07,5.86Z"/>
      </g>
      <path class="cls-7" d="M319.62,135.2c-16.04,27.54-106.53,84.32-168.2,76.81-61.67-7.51-68.65-25.47-68.65-25.47l1.46-2.07,9.37-13.23,13.49-19.04,29.3-41.36,4.21-5.94c.19.29.42.61.67.95,2.59,3.48,8.38,9.52,16.59,11.48,1.86.45,3.85.69,5.95.64,12.26-.27,39.61-59.41,98.48-68.22,37.86-5.66,55.5,18.45,64.4,41.41,6.46,16.67-.33,32.46-7.08,44.05Z"/>
      <path class="cls-7" d="M45.85,99.12c.12.38.29.76.51,1.08.15.24.35.45.56.64,2.02,1.7,4.43-.32,6.06-2.05,3.3-3.49,7.09-6.54,11.19-9.04,3.3-2.01,8.41-3.07,11.01-5.87.36-.39.69-.8,1.01-1.24,3.2-4.36,4.41-10.92,4.9-16.82.19-2.28.27-4.45.3-6.37.18-8.36-.58-16.78.74-25.04.73-4.61,2.11-9.18,2.67-13.78.32-2.57-2.72-4.17-4.68-2.46-.24.21-.48.42-.73.63-11.37,10.05-21.76,21.55-28.45,35.17-5.23,10.64-8.05,22.7-7.1,34.44.29,3.61.95,7.2,2,10.7Z"/>
      <path class="cls-9" d="M51.04,84.84c6.27-1.49,12.16-4.63,16.89-9.01-.28-5.48-1.27-11.01-.76-16.46.62-6.5,3.04-12.69,5.81-18.59,1.38-2.92,2.84-6.41,1.23-9.2-9.63,7.21-17.09,17.29-21.15,28.62-2.86,7.95-4.03,16.5-3.5,24.93.5-.05.98-.17,1.48-.28Z"/>
      <path class="cls-9" d="M174.15,205.95c-6.79.62-13.55,1.64-20.24,3.02-2.1.89-4.2,1.74-6.33,2.55-58.13-7.77-64.82-24.98-64.82-24.98-1.09-1.39-2.73-2.98-5.24-4.33l.43-6.87s8.96-2.54,15.63-4.1c2.95-.68,5.44-1.18,6.52-1.18,3.54,0,26.02.37,26.02.37,0,0,17.62,20.15,38.85,25.1,4.05.95,9.02.84,14.4.05,3.24.42,6.56.19,9.7-.7-6.14,4.18-13.11,7.13-20.38,8.63,1.81.81,3.63,1.63,5.43,2.43Z"/>
      <path class="cls-1" d="M51.18,95.74c.07.28.14.57.23.85,4.01-2.85,8.17-5.48,12.47-7.88,1.57-1.83,3.45-3.25,3.8-5.63.36-2.4.38-4.82.25-7.25-4.73,4.39-10.62,7.53-16.89,9.01-.49.12-.98.23-1.48.28.23,3.57.76,7.13,1.61,10.62Z"/>
      <path class="cls-3" d="M63.88,88.71c4-2.23,8.1-4.25,12.31-6.06,3.2-4.36,4.41-10.92,4.9-16.82-1.41.41-2.23,1.85-2.98,3.12-.77,1.31-1.89,2.7-3.41,2.68-.37,0-.73-.1-1.09-.12-1.47-.05-2.62,1.19-3.61,2.27-.66.72-1.35,1.41-2.07,2.06.12,2.43.11,4.85-.25,7.25-.35,2.39-2.23,3.81-3.8,5.63Z"/>
      <path class="cls-3" d="M45.85,99.12c.12.38.29.76.51,1.08.7-.4,1.36-.91,2-1.39,1-.76,2.02-1.5,3.05-2.23-.09-.28-.16-.57-.23-.85-.85-3.49-1.38-7.05-1.61-10.62-.37.06-.74.09-1.12.08-.42-.01-.86-.07-1.28,0-.98.16-1.7.97-2.3,1.75-.36.47-.7.96-1.02,1.46.29,3.61.95,7.2,2,10.7Z"/>
      <path class="cls-9" d="M51.41,96.59c.18.56.43,1.09.84,1.51,1.46,1.44,3.98.56,5.5-.8,2.25-2.03,3.53-4.81,5.16-7.31.29-.46.62-.88.96-1.27-4.3,2.4-8.46,5.03-12.47,7.88Z"/>
      <path class="cls-7" d="M146.85,116.84c-.03.21-.05.42-.09.63-1.1,8.33-3.5,19.68-8.46,30.76-8.42,18.84-24.27,36.94-53.91,38.23-.05-.61-.1-1.28-.15-2.01-.73-9.49-2.08-27.87-2.08-27.87,0,0-9.88,16.63-24.96,21.69-1.09.36-2.18.69-3.26.94,0,0,0-.04.02-.05-4.84.67-9.96,0-14.78-.74-2.69-.42-5.39-.92-8.05-1.6-5.4-2.5-10.85-6.39-16.62-11.55-7.14-6.4-10.39-11.69-11.24-15.65-.93-4.23.89-6.9,3.58-7.71,2.31-.7,6.04-.99,9.87-1.37,4.43-.44,8.99-.99,11.57-2.41.24-.11.43-.24.64-.38,4.32-3.06-.56-2.18,7.74-26.93,4.62-13.77,12.25-21.08,22.56-25.92,5.98-2.81,12.86-4.78,20.57-6.71,2.88-.72,5.88-1.43,8.99-2.19,17.89-4.3,37.15,10.82,48.34,24.36,1.27,1.53,2.43,3.04,3.47,4.5h0s.05.07.07.1c.2.28.41.57.6.85,2.69,3.88,4.5,7.34,5.18,9.79.11.4.24.8.4,1.21Z"/>
      <path class="cls-3" d="M44.17,118.6c.48,1.01.84,2.09.98,3.2.32,2.43-.43,4.91-1.64,7.05-.7,1.23-1.59,2.41-2.81,3.14-1.22.73-2.81.95-4.06.27-1.12-.61-1.79-1.84-2.04-3.09-.25-1.25-.12-2.54,0-3.81.32-3.22.59-6.94,2.48-9.69,2.33-3.4,5.93.47,7.08,2.94Z"/>
      <path class="cls-3" d="M85.39,115.33c2.31,3.06,3.11,7.07,2.87,10.89-.11,1.78-.47,3.61-1.53,5.04-1.57,2.1-4.45,2.91-7.04,2.53-2.59-.38-4.92-1.79-6.97-3.42-.81-.64-1.58-1.33-2.26-2.11-2.26-2.59-3.32-6.25-2.59-9.62,1.86-8.59,12.52-9.94,17.53-3.32Z"/>
      <g>
        <path class="cls-4" d="M67.83,122.11c.21.84.55,1.62.98,2.33t.01.02c1.88,3.06,5.61,4.68,9.27,3.75,4.51-1.15,7.24-5.74,6.09-10.26-.38-1.5-1.14-2.8-2.15-3.82,0,0-.01,0-.01-.02-2.04-2.07-5.09-3.02-8.09-2.25-4.51,1.15-7.25,5.74-6.1,10.25Z"/>
        <path class="cls-2" d="M67.83,122.11c.21.84.55,1.62.98,2.33t.01.02c2.04,2.07,5.08,3.03,8.1,2.26,4.51-1.15,7.24-5.74,6.09-10.26-.21-.84-.54-1.63-.98-2.33,0,0-.01,0-.01-.02-2.04-2.07-5.09-3.02-8.09-2.25-4.51,1.15-7.25,5.74-6.1,10.25Z"/>
        <path class="cls-11" d="M67.83,122.11c.99,3.9,4.96,6.25,8.85,5.26s6.25-4.96,5.26-8.86-4.96-6.25-8.86-5.26-6.25,4.96-5.26,8.86Z"/>
        <path class="cls-2" d="M69.53,118.17c-.25,1.54.17,2.9.94,3.02s1.6-1.02,1.86-2.57-.17-2.9-.94-3.02-1.6,1.02-1.86,2.57Z"/>
      </g>
      <path class="cls-9" d="M126.14,170.43c-8.17,18.29-11.9,14.97-39.24,15.94-.81.03-1.66.06-2.52.1-.53.03-1.07.05-1.62.06-1.09-1.39-2.73-2.98-5.24-4.33-2.69-1.47-6.36-2.69-11.35-3.17-3.42-.34-7.47-.33-12.24.2,0,0,0-.04.02-.05-4.84.67-9.96,0-14.78-.74-2.69-.42-5.39-.92-8.05-1.6-1.72-.43-3.42-.92-5.08-1.51-.36-.11-.72-.24-1.09-.38-3.28-1.21-6.42-2.76-9.31-4.75-5.05-3.47-9.23-8.5-11.19-14.24-.37-1.07-.66-2.15-.86-3.27-.19-.99-.3-2.02-.33-3.05-.02-.08-.02-.17-.02-.25,2.06-2.82,4.86-5.02,8.01-6.64,1.75-.91,3.59-1.64,5.46-2.19.6-.18,1.19-.33,1.79-.47,3.23-.75,6.53-1.27,9.78-1.94,2.68-.55,5.32-1.2,7.87-2.21,1.51-.6,3.02-1.34,4.2-2.46.15-.15.31-.31.46-.48,1.18-1.36,1.82-3.1,2.36-4.82,1.76-5.61,2.88-11.38,4.42-17.05,2.52-9.27,6.24-18.28,11.63-26.21,5.98-2.81,12.86-4.78,20.57-6.71-8.97,9.82-14.75,22.62-15.73,35.91-.3,4.01-.19,8.08.74,11.98,2.23,9.31,9.36,17.31,18.37,20.58,3.99,1.45,8.26,2,12.51,2.25,4.38.26,8.09,1.44,11.4,3.25,7.38,4.02,12.76,11.15,19.05,18.24Z"/>
      <path class="cls-1" d="M11.25,142.75c.09.01.18.02.27.03,2,.13,4-.16,5.99-.36,4.11-.4,8.26-.47,12.38-.18,1.87.14,3.75.34,5.64.27,2.58-.1,5.11-.7,7.62-1.31,4.82-1.19,9.62-2.42,14.41-3.72.56-.15,3.07-.45,3.18-1.15.14-.9-1.96-1.11-2.55-1.23-2.16-.48-4.34-.85-6.53-1.13-3.75-.46-7.53-.62-11.31-.47-1.18,1.12-2.69,1.86-4.21,2.46-2.54,1-5.19,1.66-7.86,2.21-3.25.67-6.55,1.18-9.77,1.93-.6.14-1.19.29-1.79.47-1.87.55-3.72,1.27-5.46,2.18Z"/>
      <path class="cls-1" d="M87.06,186.43c-.92.74-2.88,2.33-2.88,2.33-1.09-1.39-4.14-5.21-6.64-6.56-2.69-1.47-6.36-2.69-11.35-3.17-3.42-.34-7.47-.33-12.24.2,0,0,0-.04.02-.05-4.84.67-9.96,0-14.78-.74-2.69-.42-5.39-.92-8.05-1.6-1.72-.43-3.42-.92-5.08-1.51-.36-.11-.72-.24-1.09-.38-3.28-1.21-6.42-2.76-9.31-4.75-5.05-3.47-9.23-8.5-11.19-14.24-.37-1.07-.66-2.15-.86-3.27.9-.6,1.84-1.13,2.8-1.57,6.05-2.8,12.98-3.17,19.54-3.2,3.39-.02,4.94.52,3.24,3.96-1.31,2.63-3.27,5.01-5.53,6.88-1.96,1.63-4.43,3.34-4.44,5.89-.02,1.99,1.55,3.62,3.15,4.79,7.24,5.3,16.8,5.9,25.76,6.29,7.36.33,14.72.65,22.08.98,3.35.14,6.7.29,10.03-.05.53-.06,1.09-.14,1.54-.44.76-.53.95-1.55,1.34-2.39.4-.84,1.4-1.62,2.18-1.11.61,2.13-.67,4.3-.85,6.49-.22,2.59,1.22,4.95,2.62,7.24Z"/>
      <g>
        <path class="cls-4" d="M34.33,122.5c.02.81.13,1.6.29,2.33t0,.02c.72,3.19,2.67,5.46,4.89,5.4,2.73-.08,4.85-3.68,4.72-8.04-.04-1.45-.33-2.79-.79-3.94,0,0,0,0,0-.02-.93-2.32-2.57-3.83-4.39-3.78-2.73.08-4.85,3.67-4.72,8.03Z"/>
        <path class="cls-2" d="M34.33,122.5c.02.81.13,1.6.29,2.33t0,.02c.93,2.32,2.57,3.84,4.39,3.79,2.73-.08,4.85-3.68,4.72-8.03-.02-.81-.12-1.6-.29-2.33,0,0,0,0,0-.02-.93-2.32-2.57-3.83-4.39-3.78-2.73.08-4.85,3.67-4.72,8.03Z"/>
        <path class="cls-11" d="M34.33,122.5c.11,3.76,2.11,6.75,4.47,6.68,2.36-.07,4.18-3.18,4.07-6.94-.11-3.76-2.11-6.75-4.47-6.68-2.36.07-4.18,3.18-4.07,6.94Z"/>
        <path class="cls-2" d="M35.77,119.28c-.33,1.35-.25,2.67.18,2.95s1.04-.59,1.37-1.94c.33-1.35.25-2.67-.18-2.95-.43-.28-1.04.59-1.37,1.94Z"/>
      </g>
      <path class="cls-11" d="M11.42,139.85c-4,.78-8.46,2.4-9.9,6.22-1.28,3.4.37,7.15,2.24,10.27,1.32,2.21,2.99,4.51,5.49,5.14,1.27.32,2.62.15,3.9-.12,7.61-1.57,14.28-6.57,18.7-12.96,8.87-12.81-14.62-9.68-20.43-8.54Z"/>
      <path class="cls-9" d="M87.72,106.79c7.88-7.42-16.18-13.87-16.45-5.2-.14,4.41,13.29,8.17,16.45,5.2Z"/>
      <path class="cls-9" d="M41.7,105.36c-1.29.35-2.66.85-3.35,2.31-.3.64-.41,1.61.02,2.29.28.45.72.63,1.12.73,2.01.52,3.89-.24,5.77-.75.56-.15,1.13-.28,1.62-.64.49-.35.88-.98.91-1.78.14-3.77-4.91-2.49-6.09-2.17Z"/>
      <path class="cls-7" d="M140.03,98.82c7.36-5.46,10.71-14.97,11.28-24.11.57-9.14-1.22-18.25-2.14-27.36-1.38-13.76-.77-27.64-.89-41.47-.01-1.38-.06-2.84-.81-4-1.05-1.61-3.26-2.15-5.14-1.74-1.88.41-3.5,1.58-4.98,2.8-9.25,7.6-15.68,18.07-21.03,28.79-5.34,10.72-9.79,21.9-16,32.14-1.64,2.7-3.41,5.37-4.42,8.36-1.01,2.99-1.17,6.44.37,9.2,1.19,2.13,3.24,3.62,5.22,5.03,3.93,2.81,7.87,5.62,11.8,8.43,8.91,6.36,16.68,11.4,26.74,3.93Z"/>
      <path class="cls-9" d="M106.39,77.89c.1.22.24.42.4.61.67.79,1.76,1.25,2.7.86,1.18-.5,1.56-2.02,1.39-3.28,1.03-.14,1.92.67,2.66,1.41,2.49,2.57,4.99,5.13,7.49,7.71.09-1.91.06-3.81-.1-5.71,2.47,2.85,4.8,5.83,6.94,8.94,1.22,1.77,3.35,6.73,6.25,4.89.43-.27.8-.68,1.14-1.18,1.4-2.09,2.12-5.78,2.56-7.65.73-3.14,1.05-6.35,1.1-9.56.11-6.1-.74-12.17-1.43-18.23-1.05-9.1-1.79-18.24-2.2-27.39-.15-3.27-.26-6.6-1.28-9.72-.35-1.07-1.14-2.31-2.25-2.12-.65.11-1.1.68-1.48,1.23-4.81,6.86-7.75,14.84-10.41,22.79-1.54,4.62-3.04,9.31-5.65,13.42-1.08,1.71-2.37,3.31-3.33,5.09-.73,1.36-1.26,2.81-1.8,4.26-1.21,3.25-2.42,6.51-2.96,9.93-.2,1.24-.28,2.58.26,3.71Z"/>
      <path class="cls-5" d="M6.98,142.87c-1.25.39-2.73,1.14-2.69,2.44,2.48.14,4.93-.48,7.4-.81,2.46-.32,5.12-.31,7.25.96.49.29.96.67,1.21,1.18.71,1.49-.67,3.55.4,4.81.51.6,1.42.73,2.17.52s1.4-.71,2.01-1.21c1.48-1.2,2.94-2.51,3.78-4.21.75-1.52,1.21-4.36-.62-5.21-1.74-.81-4.64-.75-6.54-.8-4.88-.11-9.73.88-14.37,2.33Z"/>
      <path class="cls-2" d="M8.12,142.53c-.33.12-.73.41-.58.73.11.22.41.25.65.24,1.1-.04,9.08-.41,8.93-1.46-.33-2.21-7.86.09-9,.5Z"/>
      <path class="cls-1" d="M106.78,78.5c.67.79,1.76,1.25,2.7.86,1.18-.5,1.56-2.02,1.39-3.28,1.03-.14,1.92.67,2.66,1.41,2.49,2.57,4.99,5.13,7.49,7.71.09-1.91.06-3.81-.1-5.71,2.47,2.85,4.8,5.83,6.94,8.94,1.22,1.77,3.35,6.73,6.25,4.89.43-.27.8-.68,1.14-1.18-.7.02-1.51.54-2.34.12-.91-.48-1.51-1.38-2.06-2.25-2.87-4.46-5.75-8.92-8.63-13.38-1.1-1.71-2.28-3.49-4.08-4.41-.86,1.74.36,4.24-1.03,5.61-2.36-2.23-5.04-4.13-7.92-5.62.1,1.2.19,2.39.29,3.58.05.64.09,1.31-.18,1.88-.41.9-1.61,1.19-2.5.82Z"/>
      <path class="cls-6" d="M24.96,174.95c.36.14.72.27,1.09.38.51-.1,1.02-.21,1.52-.34.38-.08.77-.18,1.14-.28,2.01-.57,3.99-1.22,5.93-2.01,1.92-.82,3.81-1.71,5.64-2.72,1.83-1.03,3.6-2.14,5.34-3.34,1.72-1.19,3.42-2.44,5.09-3.77.84-.65,1.64-1.35,2.48-2.04.54-.46,1.06-.9,1.6-1.4.53.42,1.02.88,1.49,1.38.9.86,1.53,1.95,2.36,3.12.07-1.39-.17-2.87-.88-4.15-.39-.76-.89-1.47-1.49-2.09-.42-.45-.89-.86-1.39-1.2-.61-.42-1.25-.79-1.93-1.08-.66-.28-1.36-.49-2.05-.62-1.41-.26-2.85-.28-4.23.16-.11.03-.17.15-.12.25.01.05.05.09.11.12h0c1.79.76,3.44,1.41,4.97,2.17-.24.4-.51.8-.78,1.18-.57.84-1.21,1.62-1.86,2.4-1.33,1.53-2.78,2.98-4.34,4.29-3.14,2.63-6.65,4.78-10.36,6.52-1.87.84-3.79,1.58-5.75,2.17-.57.16-1.17.33-1.75.48-.6.15-1.2.3-1.81.42Z"/>
      <path class="cls-9" d="M262.9,163.5c.72,5.81,2.5,11.47,5.17,16.67-28.97,15.89-64.06,29.98-96.33,32.18,2.11-.56,4.34-1.33,6.33-2.05,4.52-1.65,8.83-3.91,12.57-6.95-3.62-.04-7.23-.06-10.85-.1,6.75-2.67,13.93-5.67,17.93-11.73-.45,0-.91,0-1.37,0,18.19-5.7,35.56-14.59,36.1-14.86l-5.65,6.66s25.93-14.65,31.22-21.16c.14-.18.27-.35.39-.52l-.35.86-1.54,3.77s.68-.37,1.89-1.04c.24,2.09.4,4.19-.07,4.86l4.56-6.59Z"/>
      <path class="cls-9" d="M324.58,135.56c-6.16,10.57-23.64,25.19-46.5,38.87-2.35-3.31-5.02-6.42-7.36-9.75-1.06-1.51-2.06-3.08-2.93-4.73,13.8-7.94,36.13-21.43,42.52-29.07,6.99-8.38,10.39-29.06,15.63-41.65,6.46,16.67,5.39,34.75-1.36,46.33Z"/>
      <g>
        <path class="cls-7" d="M211.91,158.9s0,.02-.02.03c-17.9,27.54-27.11,24.59-27.49,26.04.11,0,.21,0,.31,0,2.65-.06,5.3-.14,7.95-.21-3.9,4.28-8.77,7.65-14.14,9.82-.24.25-.5.51-.76.75,3.74.75,7.67.61,11.34-.43-6.14,4.18-13.11,7.13-20.38,8.63,1.81.81,3.63,1.63,5.43,2.43-6.79.62-13.55,1.64-20.24,3.02-10.38,4.37-21.05,8.02-31.93,10.92-.95.26-1.9.51-2.85.75-4.93,1.25-9.92,2.35-14.98,2.74-.35.03-.72.05-1.11.09-4.9.41-12.51,1.25-16.95,1.08-12.69-.5-44.41-.1-49.27-1.18.06-6.81,3.2-13.54,8.38-17.95,5.18-4.42,12.33-6.45,19.05-5.43,1.86.28,3.79.79,5.6.25,1.42-.42,2.59-1.43,3.7-2.41.56-.5,1.12-.99,1.69-1.47,9.56-8.34,19.41-16.45,30.39-22.78,19.6-11.29,83.9-53.86,105.29-44.95,6.71,2.79,4.96,24.17.99,30.27Z"/>
        <path class="cls-9" d="M103.04,223.47c-4.9.41-12.51,1.25-16.95,1.08-12.69-.5-44.41-.1-49.27-1.18.06-6.81,3.2-13.54,8.38-17.95,5.18-4.42,12.33-6.45,19.05-5.43,1.86.28,3.79.79,5.6.25,1.42-.42,2.59-1.43,3.7-2.41.56-.5,1.12-.99,1.69-1.47,1.18.09,2.41.09,3.71.06,4.88-.1,6.67-.42,4.96,4.56-.61,1.74.45,3.72,2.01,4.71,1.55.99,3.47,1.18,5.31,1.2,3.68.04,7.37-.55,10.86-1.74-2.07,2-4.13,4-6.19,6-.9.88-1.84,2.33-.96,3.24.36.36.9.46,1.41.53,3.08.47,6.16.93,9.23,1.39.56,2.69-.61,5.13-2.53,7.15Z"/>
      </g>
      <path class="cls-1" d="M179.78,203.24c3.62.04,7.23.06,10.85.1-3.74,3.05-8.05,5.31-12.57,6.95-1.99.72-4.01,1.48-6.12,2.04-13.27,1.1-21.94-.51-24.34-.82,2.13-.81,4.2-1.66,6.3-2.55,6.68-1.38,13.45-2.4,20.24-3.02-1.81-.8-3.63-1.62-5.43-2.43,7.27-1.49,14.24-4.45,20.38-8.63-3.14.89-6.47,1.12-9.7.7,5.4-.79,11.22-2.27,16.95-4.06.45,0,.91,0,1.37,0-4,6.06-11.18,9.06-17.93,11.73Z"/>
      <path class="cls-1" d="M278.08,174.42c-3.23,1.94-6.57,3.85-10.01,5.74-2.68-5.2-4.45-10.86-5.17-16.67l-4.56,6.59c.47-.67.32-2.77.07-4.86,1.95-1.08,5.29-2.94,9.38-5.29.87,1.65,1.87,3.22,2.93,4.73,2.34,3.33,5.01,6.44,7.36,9.75Z"/>
      <path class="cls-10" d="M192.48,191.55c1.29,0,2.58-.02,3.87-.03-5.73,1.79-11.56,3.27-16.95,4.06-.55-.06-1.09-.15-1.64-.26.26-.24.52-.5.76-.75,5.37-2.17,10.25-5.54,14.14-9.82-2.65.07-5.3.14-7.95.21-.1,0-.2,0-.31,0,.38-1.46,9.59,1.5,27.49-26.04-3.55,12.51-9.63,24.25-19.41,32.63Z"/>
      <path class="cls-10" d="M267.79,159.95c-4.09,2.35-7.42,4.21-9.38,5.29-.11-.96-.24-1.92-.35-2.73,0-.12-.03-.24-.04-.34-.07-.61-.13-1.13-.13-1.46,0-3.32.17-6.65.5-9.95.6-5.95,1.23-13.33,3.82-18.75,1.84,1.69.52,6.75.47,9.04-.1,4.02-.03,8.02.2,12.03.64-1.47,1.28-2.95,1.91-4.42-.13,3.95,1.13,7.77,3,11.29Z"/>
      <g>
        <path class="cls-7" d="M331.57,165.41c-1.09-.39-1.76-1.65-1.49-2.77-.78,3.75-2.02,7.41-3.69,10.85-.45-1.95-.9-3.91-1.35-5.87-5.46,7.71-9.89,16.16-13.15,25.04-1.72,4.66-3.1,9.43-4.15,14.29-11.01.38-24.31.8-35.3.23-.88-4.46,1.4-10.42,4.72-13.53,3.31-3.12,9.83-3.79,14.22-2.63-1.36-1.33-2.71-2.67-4.06-4.02-8.83-8.86-17.17-18.45-21.18-30.19-6.18-18.09-.8-38.57,9.76-54.52,5.43-8.23,12.55-14.76,19.76-21.39,6.3-5.81,15.42-13.26,22.97-5,2.2,2.4,4.36,6.44,5.62,9.44,5.66,13.44,8.64,26.85,8.33,41.42-.94.14-1.94-.41-2.32-1.28.75,5.53,1.51,11.07,2.27,16.6,1.07,7.81,2.08,16.06-.95,23.33Z"/>
        <path class="cls-9" d="M311.9,192.66c-1.72,4.66-3.1,9.43-4.15,14.29-11.01.38-24.31.8-35.3.23-.88-4.46,1.4-10.42,4.72-13.53,3.31-3.12,9.83-3.79,14.22-2.63-1.36-1.33-2.71-2.67-4.06-4.02,4.9-.97,9.88-2.26,10.2-3.81-.08,1.2-1.03,2.18-1.45,3.33-1.1,3.03,2.1,6.22,5.32,6.4,3.22.17,6.18-1.62,8.9-3.35-.22,1.22.65,2.2,1.6,3.09Z"/>
      </g>
      <path class="cls-7" d="M330.27,86.2c-.23.38-.47.75-.73,1.11-.83,1.15-1.86,2.17-3.1,2.79-.08.04-.16.08-.24.12-.33.14-.67.26-1.02.34-1.99.47-4.09-.19-5.89-1.18-4.34-2.38-7.4-6.5-10.81-10.09-1.56-1.63-3.21-3.16-4.96-4.58-4.6-3.8-9.8-6.85-15.35-9.02-6.85-2.67-15.36-6.75-6.93-13.91,6.27-5.33,16.93-7.57,24.91-7.25,9.98.41,19.97,5.3,25.41,13.68.6.92,1.11,2.22.34,3.01-.68.7-1.9.45-2.68,1.04-1.26.97-.29,2.94.59,4.27,3.8,5.78,3.98,13.72.46,19.67Z"/>
      <path class="cls-10" d="M157.87,117.32c-2.85,1.03-5.97,1.28-8.93.71-.74-.14-1.46-.33-2.17-.56-3.89-1.27-7.27-3.78-10.37-6.65-1.49-1.37-2.92-2.83-4.31-4.26-.93-.97-1.87-1.93-2.8-2.88.84.87,6.54-2.66,7.86-3.29,1.27,1.53,2.43,3.04,3.47,4.5h0s.05.07.07.1c.2.28.41.57.6.85,2.59,3.48,8.38,9.52,16.59,11.48Z"/>
      <path class="cls-10" d="M325.07,80.91c1.69,1.98,3.19,4.13,4.47,6.4-.83,1.15-1.86,2.17-3.1,2.79-.23-.34-.45-.68-.69-1.02-.99-1.46-2.02-2.92-3.06-4.36-2.05-2.84-7.87-8.17-10.48-12.42-.8-1.3-1.29-2.5-1.29-3.5,3.84.74,7.67,2.93,10.81,5.24.99.73,7.94,8.45,8.1,8.45-1.71.34-3.59-.28-4.76-1.58Z"/>
    </g>
  </g>
</svg>