<?xml version="1.0" encoding="UTF-8"?>
<svg id="Capa_2" data-name="Capa 2" xmlns="http://www.w3.org/2000/svg" viewBox="0 0 69.2 65.2">
  <defs>
    <style>
      .cls-1 {
        fill: #f4ecd7;
      }

      .cls-2 {
        fill: #fefbf3;
      }

      .cls-3 {
        fill: #e7d9bf;
      }

      .cls-4 {
        fill: #fefbf4;
      }

      .cls-5 {
        fill: #e7d8be;
      }
    </style>
  </defs>
  <g id="bone1">
    <g>
      <path class="cls-1" d="M54.22,2.17c-.74,2.26-.15,5.54,1.01,7.64,2.24,4.06,8.41,5.87,8.78,11.01.25,3.47-1.87,5.88-5.47,5.26-2.96-.51-6.24-4.48-9.41-4.11-.56.06-1.17.57-1.65.87-2.52,1.56-5.67,4.05-8.04,5.92-5.41,4.26-14.26,12.04-15.23,19.16-.41,3.01.26,7.77-3.34,9.16-3.99,1.55-5.8-1.81-8.12-3.96-2.76-2.55-6.43-4.72-10.21-5.1-4.09-3.22-2.88-9.47,1.03-12.41,5.32-3.99,8.89,1.81,14.08,1.16,2.71-.34,13-8.92,15.52-11.15,2.13-1.88,8-7.1,8.45-9.68.76-4.4-2.75-7.73-.19-12.07s9.51-5.33,12.79-1.7ZM48.98,12.97c.47-.29-.31-3.06-.3-3.79,0-2.24,2.77-6.82-.27-7.55-5.5-1.31-7.39,5.06-6.21,9.33.5,1.8,1.4.58,2.95.8,1.38.2,2.21,1.74,3.84,1.21ZM59.02,16.34c.66-.83-3.3-3.65-3.83-4.19-2.28-2.33-2.61-5.62-2.73-8.73-1.83,2.97-.07,7.79,2.39,9.9l4.17,3.02ZM51.1,8.84c-.48-.1-.33.06-.47.27-1.41,2.19,2.08,5.73,4.22,6.19l-3.17-3.6c-.52-.9-.67-1.83-.58-2.86ZM42.34,18c.55-.48,1.28-3.35.32-3.96-.15,1.14-.6,2.57-.72,3.66-.04.39.22.45.4.29ZM44.22,14.46h-.62s-.21,2.08-.21,2.08c1-.09.85-1.38.83-2.08ZM58.71,18.22c-.42.12-.42.92,0,1.04.96.27.96-1.31,0-1.04ZM52.87,19.88c-.65.18-.03,1.14.41,1.04.53-.12.4-1.26-.41-1.04ZM40.21,20.55c-1.1.27-2.22,2.46-2.97,3.29-4.07,4.53-8.76,7.3-13.43,10.96-1.62,1.27-6.51,5.03-.88,3.91,4.18-.83,11.67-7.15,14.83-10.18,1.53-1.47,4.29-4.2,4.17-6.45-.05-1.04-.6-1.81-1.72-1.53ZM57.97,22.8c-.12-.13-1.17,0-1.04.52.28,1.11,1.57.04,1.04-.52ZM6.03,35.14c-1.48.25-2.27,1.68-2.94,2.89-1.08,1.93-2.48,5.03-1.35,7.14,1.06,1.99,1.58-.11,2.17-.9,1.09-1.46,2.44-2.77,4.35-2.94,1.27-.11,6.64,1.11,5.42-1.86-.08-.19-1.53-1.97-1.76-2.19-1.49-1.46-3.77-2.5-5.89-2.14ZM17.55,37.59c-.19-.19-1.4.21-1.76.19-.66-.03-1.52-.63-2.2-.72.5,1.07,1.59,1.39,2.71,1.36.17.75-.82.31-1.25.42-.02.86,1.12.7,1.68.53.4-.25-.1-.82-.01-.94.04-.06,1.42-.24.84-.83ZM16.92,45.93c-.13.14,0,1.16.52,1.04.8-.18-.04-1.52-.52-1.04ZM16.92,54.68c.27-.26-1.93-2.2-2.19-2.5-1.28-1.43-1.93-2.59-3.66-3.63-2.09-1.26-4.87-1.98-7.28-2.2.06.36.42.36.67.47,1.92.82,3.76,1.13,5.64,2.28,2.59,1.57,3.94,4.46,6.81,5.59ZM14.42,50.3c.87-.87-4.01-4.83-5.42-3.96,1.04.91,2.38,1.38,3.43,2.3.35.3,1.62,2.03,1.98,1.66ZM16.63,48.66c-.8.26-.19,1.77.72,1.14.51-.36.18-1.43-.72-1.14ZM20.78,49.89c-.42.12-.42.92,0,1.04.96.27.96-1.31,0-1.04ZM18.91,52.6c-.51.12-.36,1.17.2,1.04.51-.12.36-1.17-.2-1.04Z"/>
      <path class="cls-5" d="M2.54,48.01c3.79.39,7.46,2.55,10.21,5.1,2.33,2.15,4.13,5.51,8.12,3.96,3.59-1.39,2.93-6.16,3.34-9.16.97-7.11,9.81-14.9,15.23-19.16,2.38-1.87,5.52-4.35,8.04-5.92.48-.3,1.09-.8,1.65-.87,3.16-.36,6.44,3.61,9.41,4.11,3.6.62,5.72-1.8,5.47-5.26-.37-5.14-6.55-6.95-8.78-11.01-1.15-2.1-1.75-5.38-1.01-7.64,1.83,2.03,1.93,4.68,3.09,7.02,2.04,4.13,5.41,3.28,8.57,5.81,5.55,4.46,3.97,14.86-3.42,15.5-3.16.27-7.83-1.57-10.48-.9s-8.69,5.68-10.97,7.57c-2.48,2.06-11.48,9.93-12.3,12.49-.7,2.15-.29,6.39-.52,8.86-.74,7.99-11.78,8.7-15.59,2.68-2.45-3.88-.81-7.4-4.97-10.24-1.68-1.15-3.4-1.64-5.07-2.96Z"/>
      <path class="cls-2" d="M40.21,20.55c1.12-.28,1.67.49,1.72,1.53.11,2.26-2.64,4.98-4.17,6.45-3.16,3.03-10.65,9.35-14.83,10.18-5.63,1.12-.73-2.65.88-3.91,4.66-3.65,9.35-6.43,13.43-10.96.75-.83,1.87-3.02,2.97-3.29Z"/>
      <path class="cls-4" d="M6.03,35.14c2.12-.36,4.4.68,5.89,2.14.23.23,1.69,2,1.76,2.19,1.22,2.97-4.14,1.75-5.42,1.86-1.91.17-3.27,1.48-4.35,2.94-.59.79-1.11,2.89-2.17.9-1.12-2.1.28-5.21,1.35-7.14.68-1.21,1.47-2.64,2.94-2.89Z"/>
      <path class="cls-4" d="M48.98,12.97c-1.63.53-2.46-1-3.84-1.21-1.55-.23-2.45,1-2.95-.8-1.18-4.27.71-10.65,6.21-9.33,3.04.73.28,5.31.27,7.55,0,.73.77,3.5.3,3.79Z"/>
      <path class="cls-3" d="M59.02,16.34l-4.17-3.02c-2.46-2.11-4.22-6.93-2.39-9.9.12,3.11.45,6.4,2.73,8.73.53.54,4.49,3.36,3.83,4.19Z"/>
      <path class="cls-3" d="M16.92,54.68c-2.87-1.13-4.22-4.01-6.81-5.59-1.88-1.14-3.72-1.45-5.64-2.28-.26-.11-.61-.11-.67-.47,2.41.23,5.19.94,7.28,2.2,1.73,1.04,2.38,2.21,3.66,3.63.26.29,2.46,2.24,2.19,2.5Z"/>
      <path class="cls-3" d="M51.1,8.84c-.09,1.03.06,1.96.58,2.86l3.17,3.6c-2.14-.46-5.63-4.01-4.22-6.19.13-.21-.02-.37.47-.27Z"/>
      <path class="cls-3" d="M14.42,50.3c-.36.37-1.64-1.36-1.98-1.66-1.06-.91-2.39-1.38-3.43-2.3,1.41-.87,6.28,3.09,5.42,3.96Z"/>
      <path class="cls-3" d="M17.55,37.59c.58.59-.8.78-.84.83-.09.12.42.69.01.94-.55.17-1.7.34-1.68-.53.43-.1,1.42.33,1.25-.42-1.12.04-2.2-.28-2.71-1.36.68.09,1.54.69,2.2.72.36.01,1.57-.38,1.76-.19Z"/>
      <path class="cls-3" d="M42.34,18c-.18.16-.44.09-.4-.29.12-1.09.56-2.52.72-3.66.97.6.23,3.48-.32,3.96Z"/>
      <path class="cls-3" d="M16.63,48.66c.9-.29,1.23.78.72,1.14-.91.63-1.52-.88-.72-1.14Z"/>
      <path class="cls-5" d="M44.22,14.46c.01.71.17,1.99-.83,2.08l.21-2.08h.62Z"/>
      <path class="cls-3" d="M58.71,18.22c.96-.27.96,1.31,0,1.04-.42-.12-.42-.92,0-1.04Z"/>
      <path class="cls-3" d="M20.78,49.89c.96-.27.96,1.31,0,1.04-.42-.12-.42-.92,0-1.04Z"/>
      <path class="cls-3" d="M57.97,22.8c.53.55-.76,1.63-1.04.52-.13-.51.92-.64,1.04-.52Z"/>
      <path class="cls-5" d="M52.87,19.88c.81-.22.94.92.41,1.04-.44.1-1.06-.86-.41-1.04Z"/>
      <path class="cls-3" d="M16.92,45.93c.48-.48,1.32.86.52,1.04-.51.12-.65-.9-.52-1.04Z"/>
      <path class="cls-3" d="M18.91,52.6c.56-.13.71.92.2,1.04-.56.13-.71-.92-.2-1.04Z"/>
    </g>
  </g>
</svg>