<?xml version="1.0" encoding="UTF-8"?>
<svg id="Capa_2" data-name="Capa 2" xmlns="http://www.w3.org/2000/svg" viewBox="0 0 118.75 60.07">
  <defs>
    <style>
      .cls-1 {
        fill: #e73b3d;
      }

      .cls-2 {
        fill: #ed6761;
      }

      .cls-3 {
        fill: #fefdfd;
      }

      .cls-4 {
        fill: #d9281d;
      }
    </style>
  </defs>
  <g id="bowl-empty">
    <g id="bowl-empty-2" data-name="bowl-empty">
      <path class="cls-1" d="M58.63,60.07c-6.7-2.03-17.09-2.59-21.04-9.27-3.28-5.55-3.61-18.87-3.27-25.33.09-1.73.4-3.77.81-5.46,15.86,1.91,33.37,1.96,49.24-.03,5.62-.7,19.9-2.95,23.8-6.91.83-.84.74-1.7,1.2-2.67,4.23,6.36,9.48,20.29,9.37,27.91-.19,13.24-21.16,18.19-31.44,19.85-9.55,1.54-19,1.94-28.67,1.91ZM105.84,17.93c-.85.13-1.74.73-2.54.93-6.62,1.64-13.39,2.71-20.09,3.94-1.09.35-2.11,1.45-2.62,2.46-2.59,5.09,1.64,8.8,2.08,13.84.36,4.01-1.34,10.44.48,13.67,2.18,3.87,6.66,2.07,10.21,1.28,7.36-1.64,17.81-4.96,21.41-12.24,1.71-3.46.21-9.1-.66-12.79-.43-1.82-2.15-8.6-3.12-9.7-1.15-1.3-3.5-1.66-5.15-1.4ZM61.76,25.94c-4,.92-2.16,9.98.45,9.83,2.03-.11,3.9-4.26,3.9-6.01,0-2.53-1.71-4.42-4.35-3.82ZM52.95,26.74c-2.37.49-2.67,2.82-2,4.82.61,1.81,4.51,6.29,6.14,3.86,1.97-2.92.07-9.55-4.14-8.68ZM66.98,37.57c.49.49,2.75.39,3.48.27,2.88-.49,6.62-4.08,4.04-6.85-3.62-3.89-9.55,4.55-7.52,6.59ZM45.74,32.08c-.5.11-.93.5-1.27.87-4.6,4.98,10.7,12.33,6.82,2.82-.92-2.25-2.9-4.29-5.55-3.68ZM59.1,36.63c-4.87.83-10.52,8.4-7.1,13.11,2.6,3.58,5.77.69,8.64.69s5.02,2.45,8.13.14c4.02-2.99.33-9.57-2.65-12.01-2.08-1.7-4.31-2.4-7.02-1.94Z"/>
      <path class="cls-4" d="M9.23,10.39c.53,3.25,4.34,4.78,7.14,5.81,5.7,2.1,12.72,3.08,18.76,3.81-.42,1.69-.72,3.73-.81,5.46-.34,6.46-.01,19.78,3.27,25.33,3.95,6.68,14.35,7.23,21.04,9.27-11.82-.04-23.74-.89-35.26-3.6-7.02-1.65-21.86-6-23.2-14.19-1.28-7.78,4.76-25.15,9.05-31.89Z"/>
      <path class="cls-2" d="M109.38,10.39c-.46.97-.37,1.83-1.2,2.67-3.9,3.95-18.19,6.2-23.8,6.91-15.87,1.99-33.38,1.95-49.24.03-6.04-.73-13.06-1.7-18.76-3.81-2.8-1.03-6.62-2.55-7.14-5.81,2.69-4.22,8.43-5.65,13.14-6.76,20.7-4.87,56.19-5.03,76.66.69,4.37,1.22,7.79,2.19,10.36,6.07ZM18.04,12.79c-.14.66.31.57.72.73,12.42,4.97,33.79,5.03,47.2,4.6,10.66-.34,21.67-.73,31.92-3.86.71-.22,2.63-.58,2.67-1.47.27.06.29.3.78.13,1.66-.56,3.38-2.27,2.16-4.01-2.29-3.27-14.56-5.2-18.59-5.71-10.48-1.31-22.26-1.7-32.83-1.38-7.27.22-31.74,1.76-36.59,6.68-2.01,2.04.48,4.42,2.55,4.28Z"/>
      <path class="cls-2" d="M105.84,17.93c1.65-.26,3.99.1,5.15,1.4.98,1.1,2.69,7.88,3.12,9.7.87,3.69,2.37,9.33.66,12.79-3.6,7.28-14.06,10.6-21.41,12.24-3.55.79-8.02,2.59-10.21-1.28-1.82-3.24-.13-9.67-.48-13.67-.45-5.04-4.67-8.75-2.08-13.84.51-1,1.53-2.1,2.62-2.46,6.7-1.23,13.47-2.31,20.09-3.94.81-.2,1.69-.79,2.54-.93Z"/>
      <path class="cls-3" d="M59.1,36.63c2.71-.46,4.93.23,7.02,1.94,2.99,2.44,6.67,9.02,2.65,12.01-3.11,2.31-5.33-.14-8.13-.14s-6.03,2.89-8.64-.69c-3.42-4.71,2.23-12.29,7.1-13.11Z"/>
      <path class="cls-3" d="M52.95,26.74c4.21-.87,6.11,5.76,4.14,8.68-1.63,2.43-5.54-2.06-6.14-3.86-.67-1.99-.37-4.33,2-4.82Z"/>
      <path class="cls-3" d="M61.76,25.94c2.64-.61,4.35,1.29,4.35,3.82,0,1.75-1.87,5.9-3.9,6.01-2.62.15-4.46-8.91-.45-9.83Z"/>
      <path class="cls-3" d="M45.74,32.08c2.65-.61,4.63,1.44,5.55,3.68,3.88,9.51-11.42,2.16-6.82-2.82.34-.36.77-.75,1.27-.87Z"/>
      <path class="cls-3" d="M66.98,37.57c-2.03-2.03,3.9-10.48,7.52-6.59,2.58,2.77-1.16,6.36-4.04,6.85-.73.12-2.99.22-3.48-.27Z"/>
      <path class="cls-1" d="M103.5,8.92c-2.29-3.27-14.56-5.2-18.59-5.71-10.48-1.31-22.26-1.7-32.83-1.38-7.27.22-31.74,1.76-36.59,6.68-2.01,2.04.48,4.42,2.55,4.28-.14.66.31.57.72.73,12.42,4.97,33.79,5.03,47.2,4.6,10.66-.34,21.67-.73,31.92-3.86.71-.22,2.63-.58,2.67-1.47.27.06.29.3.78.13,1.66-.56,3.38-2.27,2.16-4.01Z"/>
    </g>
  </g>
</svg>