<?xml version="1.0" encoding="UTF-8"?>
<svg id="Capa_2" data-name="Capa 2" xmlns="http://www.w3.org/2000/svg" viewBox="0 0 218.42 188.68">
  <defs>
    <style>
      .cls-1 {
        fill: #76311a;
      }

      .cls-2 {
        fill: #ecbb83;
      }

      .cls-3 {
        fill: #ff7e00;
      }

      .cls-4 {
        fill: #ffdc9f;
      }

      .cls-5 {
        fill: #be9470;
      }

      .cls-6 {
        fill: #cb5000;
      }
    </style>
  </defs>
  <g id="dog-sleeping">
    <g>
      <path class="cls-6" d="M42.63,9.5c4.61-11.77,48.01,21.1,54.24,45.52.19.76.37,1.58.09,2.32-.29.76-1,1.27-1.67,1.72-8.94,6.01-18.56,12.61-28.54,16.68-5.47-12.32-5.8-24.54-10.23-31.8-3.36-5.5-6.91-10.93-9.58-16.81-.59-1.31-6.05-13.18-4.31-17.62Z"/>
      <path class="cls-6" d="M119.19,29.11c-1.3-7.2-3.52-14.23-4.45-21.49-.2-1.59-.34-3.25.19-4.77S116.82,0,118.43,0c1.74,0,3.1,1.45,4.14,2.85,1.85,2.48,3.45,5.14,5.04,7.8,7.75,12.9,15.7,26.43,16.74,41.44.36,5.25-.41,11.11-4.36,14.6-2.22,1.96-5.18,2.91-8.12,3.24-9.51,1.07-20.03-5.62-16.86-16.29.93-3.12,3.35-5.49,4.36-8.59,1.62-4.98.72-10.89-.18-15.93Z"/>
      <path class="cls-6" d="M106.66,44.16c11.5-.17,22.92,5.72,29.45,15.19-16.89,1.93-33.78,3.86-50.68,5.8-3,.34-8.06.35-7.96-3.83.08-3.27,4.95-7.09,7.23-8.96,6.14-5.05,13.99-8.08,21.96-8.19Z"/>
      <path class="cls-3" d="M209.64,184.35c-8.01,2.92-13.56,3.58-19.53-2.51-4.87-4.98-7.97-11.34-12.33-16.76-10.42,4.26-22.2,5.13-33.13,2.45-7.69-1.88-14.88-5.44-22.55-7.41-10.38-2.66-21.52-2.29-31.71,1.05-7.42,2.43-14.25,6.37-21.58,9.07-6.46,2.38-13.65,3.74-20.25,2.09-.89-.22-1.76-.5-2.62-.83-.85,2.03-1.89,4.02-3.12,5.86-3.11,4.66-7.4,8.5-12.65,10.31-7.33,2.54-16.51.27-20.6-6.34-5.27-8.51-.59-19.69,5.39-27.73-1.17-1.05-2.38-2.25-3.56-3.53-3.43-3.7-6.71-8.18-8.5-12.37-4.09-9.61-4.22-21.49,2.07-29.82,7.15-9.47,20.43-11.98,32.26-11.06,1.28.1,2.64.21,3.77-.39,1.23-.65,1.9-1.98,2.53-3.22,9.29-18.33,25.85-33.37,45.73-38.6,8.37-2.2,17.12-2.67,25.78-2.44,5.91.16,11.83.64,17.58,2.01,20.56,4.93,37.71,20.85,42.46,41.46,10.39-1.49,20.01,5.64,27.1,13.38,5.81,6.33,11,13.64,12.71,22.06,1.72,8.42.08,19.51-6.91,24.5.21.13.42.25.64.39,3.47,2.14,8.29,5.69,9.48,12.98,1.26,7.75-1.07,12.73-8.46,15.42Z"/>
      <path class="cls-4" d="M48.56,172.32c-.89-.22-1.76-.5-2.62-.83-.85,2.03-1.89,4.02-3.12,5.86-3.11,4.66-7.4,8.5-12.65,10.31-7.33,2.54-16.51.27-20.6-6.34-5.27-8.51-.59-19.69,5.39-27.73,2.2-4.03,1.82-1.16-.01-6.63-3.98-11.91,21.06-14.23,27.49-8.65,2.69,2.34,3.69,6.05,4.36,9.55,1.54,8.04,2.14,16.27,1.77,24.46Z"/>
      <path class="cls-4" d="M209.64,184.35c-8.01,2.92-13.56,3.58-19.53-2.51-2.99-3.06-5.31-6.63-7.66-10.19-1.49-2.24-2.98-4.48-4.67-6.58-10.42,4.26-22.2,5.13-33.13,2.45-7.69-1.88-14.88-5.44-22.55-7.41-10.38-2.66-21.52-2.29-31.71,1.05-7.42,2.43-14.25,6.37-21.58,9.07-6.46,2.38-13.65,3.74-20.25,2.09-.89-.22-1.76-.5-2.62-.83-.85,2.03-1.89,4.02-3.12,5.86-1.61-1.45-3.13-2.99-4.63-4.59-3.45-3.7-6.7-7.69-10.18-11.58-4.37-4.87-9.07-9.29-13.06-14.22-3.66-4.52-6.73-9.46-8.38-15.54-2.41-8.88-.62-19.44,6.46-25.31,6.09-5.04,14.61-5.71,22.51-5.58,5.03.08,10.33.48,14.51,3.29,4.37,2.93,6.78,8.01,10.71,11.49,3.93,3.49-14.23-19.95,4.68-32.11,11.15-7.17,27.25-6.16,35.97,3.81,2.71,3.1,5.08,7.09,9.11,7.96,3.12.67,6.28-.8,9-2.47,7.37-4.52,13.85-10.89,22.16-13.27,8.32-2.38,21.29.59,26.18,7.73,6.96,10.17,2.12,20.32,4.08,18.78,4.69-3.69,11.61-3.46,16.92-.75,5.32,2.71,9.28,7.47,12.59,12.44,7.57,11.36,12.3,26.89,4.82,38.3.79.03,1.57.1,2.34.21,3.47,2.14,8.29,5.69,9.48,12.98,1.26,7.75-1.07,12.73-8.46,15.42Z"/>
      <path class="cls-3" d="M16.16,151.6c.25-.46,8.15-9.85,21.75-5.54,0,0-15.58-7.29-25.86.33l4.11,5.21Z"/>
      <path class="cls-3" d="M206.27,155.74s-7.91-4.88-11.56-4.88,13.81-.62,14.92.73c1.11,1.35-3.36,4.14-3.36,4.14Z"/>
      <path class="cls-1" d="M24.01,151.81c-1.41,1.43-2.14,3.38-2.72,5.31-.71,2.37-1.25,4.92-.58,7.31,1.02,3.62,4.92,6.07,8.68,5.79,3.75-.28,7.11-3,8.55-6.48.41-.99.68-2.05.69-3.12.01-1.72-.66-3.37-1.5-4.87-2.52-4.49-8.58-8.56-13.12-3.95Z"/>
      <path class="cls-1" d="M9.4,176.24c.51.47,1.24.62,1.93.6,2.27-.08,4.13-1.73,5.73-3.34,1.64-1.66,2.45-3.78.9-5.83-1.02-1.36-2.6-1.85-4.22-1.39-1.75.49-3.19,1.92-4.05,3.47-.89,1.59-1.89,5-.29,6.49Z"/>
      <path class="cls-1" d="M16.31,180.71c.05.32.11.64.29.91.19.27.48.45.77.6.78.42,1.65.72,2.53.7.78-.02,1.53-.29,2.21-.66,3.09-1.71,6.14-8.98,1.31-10.61-4.61-1.56-7.61,5.59-7.12,9.06Z"/>
      <path class="cls-1" d="M27.46,176.14c-.41,1.01-.78,2.06-.79,3.15-.02,1.09.37,2.23,1.23,2.9,1.12.87,2.8.71,3.97-.09,1.16-.81,1.87-2.14,2.26-3.5.56-1.93.47-5.3-1.88-6.12-2.34-.82-4.07,1.91-4.79,3.66Z"/>
      <path class="cls-1" d="M195,154.3c1.64.82,2.84,2.29,3.91,3.77,1.32,1.83,2.53,3.87,2.66,6.13.19,3.42-2.45,6.68-5.77,7.55-3.32.87-7.01-.48-9.28-3.06-.65-.73-1.19-1.56-1.52-2.48-.52-1.48-.42-3.1-.14-4.64.85-4.61,4.87-9.91,10.14-7.28Z"/>
      <path class="cls-1" d="M214.81,171.05c-.3.56-.89.9-1.49,1.09-1.98.6-4.07-.27-5.92-1.19-1.9-.94-3.23-2.53-2.5-4.76.48-1.47,1.69-2.36,3.23-2.44,1.65-.09,3.31.72,4.52,1.8,1.23,1.11,3.1,3.75,2.17,5.51Z"/>
      <path class="cls-1" d="M210.18,176.94c.05.29.09.59.01.87-.08.29-.28.53-.49.75-.55.59-1.21,1.11-1.97,1.35-.68.21-1.41.21-2.1.08-3.17-.56-7.94-5.92-4.26-8.76,3.51-2.7,8.21,2.57,8.81,5.71Z"/>
      <path class="cls-1" d="M199.22,176.3c.65.75,1.28,1.55,1.61,2.48.34.93.34,2.03-.2,2.86-.71,1.08-2.21,1.44-3.45,1.09-1.24-.35-2.24-1.29-2.98-2.35-1.06-1.5-1.97-4.43-.19-5.83,1.77-1.4,4.07.44,5.21,1.74Z"/>
      <path class="cls-2" d="M88.03,89.21c-.46,3.45.37,6.96,1.72,10.16,2.64,6.28,7.73,11.93,14.37,13.46.92.21,2,.3,2.68-.35.92-.87.57-2.58,1.52-3.42.88-.77,2.24-.31,3.26.25,3.5,1.9,6.72,4.61,10.65,5.26,2.02.33,4.1.09,6.1-.35,7.27-1.58,14.03-5.84,18.18-12.02,4.15-6.18,5.51-14.28,3.13-21.33-.37-1.09-.89-2.24-1.91-2.79-.54-.3-1.17-.38-1.79-.46-7.28-.9-14.72-.48-21.85,1.23-6.12,1.47-12.05,3.87-18.3,4.58-2.13.24-4.37.22-6.46-.32-1.71-.45-3.47-1.95-5.23-1.97-3.69-.03-5.67,5.02-6.07,8.06Z"/>
      <path class="cls-3" d="M104.98,70.42c2.29-1.47,4.83-2.74,7.55-2.83.76-.03,1.56.05,2.22.43.54.31.97.81,1.53,1.08.8.39,1.75.26,2.64.13,6.58-.96,13.49-1.31,19.71,1.06,6.22,2.37,11.57,8.02,11.82,14.66.14,3.92-1.45,7.7-3.45,11.07-4.59,7.74-12.14,14.34-21.1,15.21-2.09.2-4.27.07-6.17-.81-2.4-1.12-4.1-3.29-5.95-5.18-1.85-1.9-4.18-3.67-6.83-3.57-.93,2.17-3.72,3.03-6.01,2.46-2.28-.58-4.13-2.24-5.72-3.98-1.86-2.03-3.55-4.29-4.49-6.89-3.34-9.31,7.31-18.39,14.25-22.82Z"/>
      <path class="cls-2" d="M194.63,150.85c-1.33-.14-17.93-1.57-16.86,14.23-10.42,4.26-22.2,5.13-33.13,2.45-7.69-1.88-14.88-5.44-22.55-7.41-10.38-2.66-21.52-2.29-31.71,1.05-7.42,2.43-14.25,6.37-21.58,9.07-6.46,2.38-13.65,3.74-20.25,2.09-.89-.22-1.76-.5-2.62-.83,1.99-7.98-.03-14.35-2.54-18.71,4.54,1.77,9.02,3.32,13.83,4.19,9.66,1.75,19.73,1.28,29.14-1.54,5.31-1.58,10.42-3.88,15.87-4.88,6.78-1.25,13.93-.39,20.22,2.42,4.04,1.8,7.83,4.41,12.21,4.96-.38-1.6-.76-3.2-1.14-4.8,4.04-1.18,8.25.71,12.19,2.19,3.7,1.4,7.52,2.47,11.41,3.21,2.97.57,6.13.91,8.95-.15,2.17-.81,3.95-2.38,5.86-3.69,6.53-4.47,15.05-5.81,22.7-3.84Z"/>
      <path class="cls-5" d="M116.08,112.05c-.09-.14-.26-.17-.38-.06l-3.01,2.69-2.28-2.67c-.11-.12-.28-.12-.38,0s-.11.33,0,.45l2.23,2.61-2.93,2.62c-.12.11-.14.31-.05.45.05.08.13.12.22.12.06,0,.12-.02.16-.07l2.99-2.67,2.26,2.65c.05.06.12.09.19.09s.14-.03.19-.09c.11-.12.11-.33,0-.45l-2.21-2.59,2.95-2.64c.12-.11.14-.31.05-.45Z"/>
      <path class="cls-2" d="M71.85,147.45c1.18-3.29,1.72-6.82,1.56-10.31,1.86,2.06,3.44,4.37,4.69,6.85.39-6.4-3.55-12.16-7.32-17.34,1.65,1.28,3.29,2.56,4.94,3.84-2.27-1.77-2.66-5.31-5.7-6.82-3.37-1.67-4.17-.71-3.11,2.55,2.35,7.25,4.96,13.4,4.95,21.24Z"/>
      <path class="cls-2" d="M151.07,154.42c-2.14-5.8-2.02-12.4.33-18.11-3.79,2.02-7.08,4.97-9.49,8.53.41-3.74,2.55-7.03,4.77-10.07,2.94-4.02,6.12-7.87,9.53-11.51-2.63.34-5.26.68-7.88,1.01,6.02-4.86,12.49-9.62,19.36-13.22-4.58,6.52-8.81,12.92-11.7,20.43-1.41,3.66-2.53,7.44-3.36,11.27-.6,2.81-2.57,8.9-1.55,11.66Z"/>
    </g>
  </g>
</svg>